<?xml version="1.0" encoding="UTF-8" standalone="no"?>
<svg
   xmlns:dc="http://purl.org/dc/elements/1.1/"
   xmlns:cc="http://creativecommons.org/ns#"
   xmlns:rdf="http://www.w3.org/1999/02/22-rdf-syntax-ns#"
   xmlns:svg="http://www.w3.org/2000/svg"
   xmlns="http://www.w3.org/2000/svg"
   xmlns:sodipodi="http://sodipodi.sourceforge.net/DTD/sodipodi-0.dtd"
   xmlns:inkscape="http://www.inkscape.org/namespaces/inkscape"
   inkscape:version="1.0beta2 (2b71d25, 2019-12-03)"
   height="214.12756"
   width="600.12"
   sodipodi:docname="meetup-vector-logo.svg"
   xml:space="preserve"
   viewBox="0 0 600.12 214.12756"
   y="0px"
   x="0px"
   id="layer"
   version="1.1"><metadata
   id="metadata882"><rdf:RDF><cc:Work
       rdf:about=""><dc:format>image/svg+xml</dc:format><dc:type
         rdf:resource="http://purl.org/dc/dcmitype/StillImage" /><dc:title></dc:title></cc:Work></rdf:RDF></metadata><defs
   id="defs880" /><sodipodi:namedview
   inkscape:current-layer="layer"
   inkscape:window-maximized="0"
   inkscape:window-y="0"
   inkscape:window-x="0"
   inkscape:cy="112.62201"
   inkscape:cx="3.8661765"
   inkscape:zoom="0.41717791"
   fit-margin-bottom="0"
   fit-margin-right="0"
   fit-margin-left="0"
   fit-margin-top="0"
   showgrid="false"
   id="namedview878"
   inkscape:window-height="1080"
   inkscape:window-width="2560"
   inkscape:pageshadow="2"
   inkscape:pageopacity="0"
   guidetolerance="10"
   gridtolerance="10"
   objecttolerance="10"
   borderopacity="1"
   inkscape:document-rotation="0"
   bordercolor="#666666"
   pagecolor="#ffffff" />
<style
   id="style873"
   type="text/css">
	.st0{fill:#F64060;}
</style>
<path
   inkscape:connector-curvature="0"
   id="path875"
   d="m 353.4,115.02201 c -0.8,1.2 -1.4,2.1 -1.9,2.9 -5.4,7.7 -11.4,14.7 -19.6,19.6 -11,6.5 -22.9,9.2 -35.4,6.5 -6.4,-1.4 -12.3,-5 -18.3,-7.8 -1.4,-0.7 -2.1,-0.7 -3.4,0.1 -5.2,3 -10.2,6.4 -15.6,8.8 -9.7,4.2 -19.9,6.5 -30.4,3.8 -6.6,-1.7 -12.3,-5.5 -17.5,-9.9 -3.7,-3.2 -3.9,-3.2 -7.6,-0.1 -6.7,5.5 -14.4,9 -22.4,12 -10,3.6 -20.3,5.9 -30.9,6.9 -12.9,1.3 -24.8,-0.9 -33.5,-11.5 -7,-8.5 -8.9,-18.3 -4.6,-28.5 4.7,-11.2 10.1,-22.099998 15.2,-33.099998 2.6,-5.7 5.3,-11.5 7.9,-17.3 0.5,-1.1 0.7,-2.3 0.7,-3.5 0.1,-2.2 0.5,-4.5 -2,-5.8 -2.5,-1.3 -5.5,-1.1 -7.4,1.3 -2.3,3 -4.4,6.2 -6.1,9.5 -5.8,11.1 -11.3,22.2 -17,33.399998 -4.2,8.4 -8.4,16.7 -12.6,25.1 -4,7.9 -11.6,10.9 -19.8,7.8 -2.8,-1 -4.5,-3.1 -5,-6.2 -0.7,-4.4 0.8,-8.4 2.3,-12.3 3.4,-8.6 6.9,-17.199998 10.3,-25.899998 1.8,-4.6 3.7,-9.3 5.4,-13.9 1.2,-3.3 1.6,-6.7 0.2,-9.9 -1.1,-2.5 -3.2,-4.3 -6.2,-4 -3.3,0.3 -5.8,2 -7.1,5 -4.3,10.7 -8.5,21.5 -12.8,32.199998 -5.1,12.9 -10.1,25.8 -15.4,38.5 -2,4.7 -4.9,9 -9.9,11 -2.5,1 -5.4,1.7 -8.1,1.7 -8.5,0.1 -15.8,-2.7 -20.9,-9.9 -4,-5.7 -5,-12.1 -3,-18.9 1.8,-6.3 3.6,-12.5 5.4,-18.7 1.8,-5.899998 3.7,-11.799998 5.5,-17.699998 1.7,-5.5 3.3,-11 5.2,-16.4 3.7,-10.7 6.6,-21.7 12.4,-31.5 4,-6.7 10.4,-10.3 17.8,-12.6 7.7,-2.3 14.3,0.6 20.8,3.9 2.5,1.2 5,2.6 7.5,3.6 3.6,1.5 6.8,0.6 9.7,-1.8 2.4,-1.9 4.7,-3.8 6.9,-6 5.4,-5.3 17.2,-6.3 22.9,-0.1 1.3,1.4 2.9,2.6 4.3,3.9 3,2.7 4.2,2.9 7.7,1 8.3,-4.7 16.8,-4 25.2,-1 4.9,1.7 7.8,5.9 9.7,10.8 2.7,7.2 1.6,14.2 -1.2,21 -5.1,12.5 -10.6,24.8 -15.5,37.4 -2.9,7.399998 -5.4,15.099998 -7.5,22.799998 -0.9,3.1 -0.9,6.9 -0.1,10 1.2,4.8 5.6,6.4 10,6.9 6.7,0.9 13.4,-0.4 19.8,-2.2 5.5,-1.5 11,-3.4 16.3,-5.3 2.6,-0.9 5,-2.4 7.5,-3.6 2.1,-1.1 2.3,-2.6 1.2,-4.6 -2.3,-4 -4.7,-8 -6.7,-12.2 -4.3,-8.8 -7.8,-17.899998 -6.8,-27.999998 0.8,-8.8 4,-16.5 12.1,-21.1 12,-6.8 21.7,-5 30.6,5.3 7.6,8.8 10.1,19.5 6.9,30.9 -1.8,6.399998 -4.5,12.499998 -7,18.699998 -0.7,1.7 -0.3,2.8 0.8,3.8 5.1,4.7 10.8,8.4 17.2,11 2.4,1 5,1.7 7.5,2.2 5.5,1.1 10.6,-0.2 15.2,-3.3 2.2,-1.5 2.2,-2.9 0.7,-4.9 -10.5,-14.4 -14.7,-30.299998 -11.5,-47.899998 1.2,-6.6 4.2,-12.8 11.3,-14.7 4.4,-1.2 9.3,-1.1 13.8,-0.5 7.4,0.9 14.1,3.9 18.6,10.2 5.4,7.6 6.8,16 4.5,25.1 -1.7,6.499998 -5.1,12.099998 -8.9,17.499998 -1.5,2.1 -1.6,4.1 0.5,5.6 3.1,2.2 6.3,4.6 9.9,5.9 7.7,2.8 15.7,2.5 23.5,0 8.5,-2.7 14.5,-8.4 17.9,-16.7 4.1,-9.999998 4.1,-20.499998 3.9,-30.999998 -0.2,-8.2 -0.5,-16.4 -0.7,-24.7 -0.1,-2.9 -0.6,-3.1 -3.4,-2.5 -7.4,1.5 -14.8,2.8 -22.2,4.2 -2.3,0.4 -4.7,0.7 -7,1.1 -5.1,0.9 -9.3,-1.2 -9.6,-7.1 -0.3,-6 -1.2,-12 -1.8,-17.9 0,-0.3 -0.1,-0.7 -0.1,-1 -0.3,-7 1.4,-10.9 9.8,-10.6 8.7,0.3 17.4,0.6 26.2,1.1 4.3,0.2 5.8,-0.9 6.1,-5.1 0.2,-3.3 0.3,-6.5999998 0.5,-9.8999998 0.3,-5.00000001 1.4,-6.10000001 6.5,-5.90000001 3,0.1 6,0.6 9,1.30000001 4.1,0.9 6.3,3.8 6.6,8 0.2,3.3999998 0.1,6.7999998 0.1,10.1999998 0,2.4 0.7,3.7 3.4,4 7.8,0.8 15.5,1.9 23.2,2.8 3.7,0.4 5.7,1.9 6.2,4.6 0.9,4.7 -0.2,7.9 -3.7,9.2 -5,1.8 -10.1,3.2 -15.3,4.4 -3.6,0.9 -7.3,1.3 -11,1.9 -2.5,0.4 -3.8,1.7 -3.8,4.5 0.1,13.6 -0.2,27.3 0.2,40.9 0.2,7.2 1.3,14.299998 4.3,20.999998 2.5,5.4 6.7,7.5 12.5,6.6 8.6,-1.4 16.4,-4.5 23.3,-9.9 3.8,-3 6.3,-6.7 6.5,-11.799998 0.3,-9.3 0.8,-18.6 1.4,-27.9 0.2,-2.7 0.5,-5.5 1.4,-8 0.5,-1.4 2.3,-3.2 3.6,-3.3 7,-0.2 14.1,-0.3 21,0.3 4.4,0.4 7.4,4.5 7.2,9.1 -0.3,6.5 -1.2,13 -1.8,19.5 -0.8,8 -1.5,15.999998 -2.3,23.999998 -0.9,8.1 5.6,12.1 12,12.2 5.4,0.1 8.5,-1.9 10.8,-7.6 2.4,-5.9 3.8,-12.3 4.8,-18.599998 1.4,-8.9 2.1,-18 3.2,-27 0.4,-3.7 2.7,-6.5 5.6,-7.1 3.3,-0.7 7.6,0.6 8.7,3.6 0.9,2.5 0.7,5.6 0.4,8.4 -1.2,10.3 -2.8,20.5 -3.8,30.699998 -0.6,6.3 2.9,10.8 9.1,12.7 3.1,0.9 6.2,1.7 9.4,2 5.6,0.6 9.5,-3.4 10.7,-9.7 1,-5.3 1.1,-10.8 1.6,-16.199998 0.6,-6.4 0.6,-12.9 1.7,-19.2 1.6,-9.4 7.7,-17.8 18.9,-20.6 6.7,-1.6 13.5,-1.8 20.2,-1.1 10.2,1.2 20.9,8.1 24.2,19.9 2.5,8.9 1.5,17.6 -1.4,26.199998 -3.4,10 -9.6,17.7 -18.2,23.6 -0.8,0.5 -1.3,1.6 -1.9,2.4 1.1,0.5 2.2,1.4 3.3,1.4 10.3,-0.2 20.1,-2.5 29,-7.9 2,-1.2 4.2,-2.1 6.3,-3.2 2,-0.9 3.1,0.2 2.6,1.9 -0.9,2.8 -2,5.8 -3.8,8.1 -7.6,9.7 -18.1,14.3 -30.1,15.1 -5.1,0.3 -10.3,-0.3 -15.5,-0.6 -3.9,-0.2 -7.8,-0.6 -11.7,-0.8 -2,-0.1 -3.1,0.7 -3.6,2.7 -3.1,12.8 -4.7,25.8 -6.3,38.8 -1,8.2 -2.5,16.4 -4.5,24.4 -1.1,4.4 -4.5,7.4 -9.2,8.1 -2.8,0.5 -4.9,-0.8 -5.8,-3.4 -0.8,-2.2 -1.5,-4.5 -1.7,-6.9 -0.9,-11.4 -0.5,-22.9 1,-34.2 0.8,-5.8 1.3,-11.6 1.9,-17.4 0.5,-4 1.1,-8.1 1.5,-12.1 0.3,-3.3 -0.4,-4 -3.6,-4.7 -6.5,-1.3 -12.9,-2.6 -19.4,-4 -4.4,-1 -7.8,0.6 -10.8,3.6 -3.9,4 -8.3,7.5 -13.5,9.8 -6.2,2.7 -12.9,2.2 -19.3,1.1 -9.3,-1.5 -16.7,-6.3 -21.9,-14.2 -1.6,-2.4 -2.8,-5.2 -4.1,-7.8 -0.7,-1.5 -1.4,-2.1 -3.1,-1.2 -6.2,3.1 -12.3,6.4 -18.7,9 -7.1,3 -14.6,4 -22.1,1.9 -7.3,-2 -13,-6.8 -17.6,-12.7 -1.5,-1.7 -2.8,-3.3 -4.7,-5.8 z M 564.7,85.722012 c -0.1,-1 -0.1,-2 -0.2,-3 -0.9,-5.8 -6.7,-8.4 -11.4,-4.9 -2.1,1.6 -4,3.6 -5.5,5.9 -4.8,7.4 -7,15.8 -9.2,24.299998 -0.5,2.1 -0.9,4.3 -0.9,6.5 0.1,4 2.5,5.2 5.8,3 7,-4.5 12.2,-10.8 16.6,-17.799998 2.7,-4.3 4.9,-8.8 4.8,-14 z m -275.7,4.1 c 0.1,-4 -0.9,-7.7 -3.8,-10.6 -1.6,-1.6 -3.7,-2.3 -6,-1.6 -2.9,0.9 -4.4,3 -4.6,6.5 -0.4,6.8 2.5,12.7 5.5,18.399998 1.5,3 3,2.9 5,0.1 2.7,-3.799998 3.8,-8.199998 3.9,-12.799998 z m -69.4,-1.3 c -0.7,-2.5 -1.2,-5 -2.3,-7.4 -1.4,-2.9 -4.9,-4.3 -7.9,-3.5 -3.3,0.9 -4.6,2.4 -4.2,6.4 0.3,3.5 1.1,7 2,10.4 0.7,2.5 1.7,5 3,7.199998 1.7,3.1 3.4,3.1 5.1,0.1 2.2,-3.899998 4,-8.199998 4.3,-13.199998 z"
   class="st0" />
</svg>
