<?xml version="1.0" encoding="UTF-8" standalone="no"?>
<svg
   xmlns:dc="http://purl.org/dc/elements/1.1/"
   xmlns:cc="http://creativecommons.org/ns#"
   xmlns:rdf="http://www.w3.org/1999/02/22-rdf-syntax-ns#"
   xmlns:svg="http://www.w3.org/2000/svg"
   xmlns="http://www.w3.org/2000/svg"
   xmlns:sodipodi="http://sodipodi.sourceforge.net/DTD/sodipodi-0.dtd"
   xmlns:inkscape="http://www.inkscape.org/namespaces/inkscape"
   sodipodi:docname="edorasware.svg"
   inkscape:version="1.0beta2 (2b71d25, 2019-12-03)"
   id="svg8"
   version="1.1"
   viewBox="0 0 211.66667 158.75"
   height="158.75mm"
   width="211.66667mm">
  <defs
     id="defs2" />
  <sodipodi:namedview
     inkscape:window-maximized="0"
     inkscape:window-y="0"
     inkscape:window-x="0"
     inkscape:window-height="880"
     inkscape:window-width="1600"
     fit-margin-bottom="0"
     fit-margin-right="0"
     fit-margin-left="0"
     fit-margin-top="0"
     showgrid="false"
     inkscape:document-rotation="0"
     inkscape:current-layer="layer1"
     inkscape:document-units="mm"
     inkscape:cy="10.003922"
     inkscape:cx="541.44802"
     inkscape:zoom="0.42113104"
     inkscape:pageshadow="2"
     inkscape:pageopacity="0.0"
     borderopacity="1.0"
     bordercolor="#666666"
     pagecolor="#ffffff"
     id="base" />
  <metadata
     id="metadata5">
    <rdf:RDF>
      <cc:Work
         rdf:about="">
        <dc:format>image/svg+xml</dc:format>
        <dc:type
           rdf:resource="http://purl.org/dc/dcmitype/StillImage" />
        <dc:title></dc:title>
      </cc:Work>
    </rdf:RDF>
  </metadata>
  <g
     transform="translate(13.575808,-27.40981)"
     id="layer1"
     inkscape:groupmode="layer"
     inkscape:label="Layer 1">
    <g
       transform="matrix(0.81003537,0,0,0.81003537,27.555591,65.977203)"
       id="g880">
      <path
         inkscape:connector-curvature="0"
         id="path900"
         d="m -25.957886,50.377565 v -79.375 H 79.875449 185.70878 v 79.375 79.374995 H 79.875449 -25.957886 Z"
         style="fill:#fcfcfc;stroke-width:0.264583" />
      <path
         inkscape:connector-curvature="0"
         id="path898"
         d="m -25.957886,50.377565 v -79.375 H 79.875449 185.70878 v 79.375 79.374995 H 79.875449 -25.957886 Z M 113.21295,102.29717 c 0,-0.11182 -4.31602,-4.504869 -9.59115,-9.762341 C 97.204337,86.138844 93.645197,82.783073 92.865761,82.393389 89.869587,80.895427 90.564163,80.961358 75.509824,80.745887 67.79722,80.635495 57.022063,80.454729 51.565032,80.344183 42.126934,80.15299 41.591555,80.115491 40.584823,79.575085 39.400472,78.939333 38.55194,78.190742 37.473863,76.830533 l -0.729708,-0.920676 0.169876,1.058333 c 0.270727,1.686616 1.10893,3.703796 2.247593,5.408956 1.251368,1.873941 16.46381,16.241504 18.785177,17.741874 1.563367,1.01045 3.548459,1.74277 5.707221,2.10545 1.628759,0.27363 49.558928,0.34395 49.558928,0.0727 z m -0.42228,-40.006857 c 3.84593,-0.983623 4.60206,-1.554498 13.12228,-9.907262 4.29286,-4.208492 8.30943,-8.316148 8.9257,-9.128125 1.19916,-1.57997 2.30147,-4.027273 2.5785,-5.724678 0.16095,-0.986184 0.14736,-1.014336 -0.2482,-0.514141 -1.10214,1.393682 -2.3947,2.520775 -3.52793,3.076292 -1.22177,0.598916 -1.46249,0.614142 -12.49057,0.79008 -17.65439,0.281649 -42.252996,0.261093 -47.625001,-0.0398 C 67.611339,40.511424 61.791249,39.896647 61.15726,39.536226 60.902003,39.39111 58.90722,38.969962 56.724407,38.600339 51.558597,37.725595 45.705614,36.362131 41.246282,34.994682 39.28175,34.39226 37.079094,33.810833 36.35149,33.702621 33.284998,33.246556 22.661342,28.76579 12.426243,23.611606 8.1441254,21.455223 4.6185974,19.719545 4.5917316,19.75455 4.5476997,19.811922 13.405098,33.459091 20.90829,44.894525 l 2.912475,4.438835 2.825779,1.417103 c 10.145165,5.087708 23.712345,8.877433 37.883071,10.581887 10.208057,1.227825 13.888766,1.397724 31.244657,1.442233 14.116268,0.0362 15.089688,0.0085 17.016398,-0.48427 z M 38.701609,20.910292 c 1.916298,-1.874298 1.846032,-1.862749 12.731131,-2.092306 16.096486,-0.339463 52.49059,-0.471311 67.20417,-0.243467 13.58285,0.210333 13.77422,0.220773 15.00411,0.818475 1.13264,0.550444 2.42268,1.67341 3.52793,3.071029 0.39556,0.500195 0.40915,0.472043 0.2482,-0.514141 -0.28861,-1.768356 -1.3967,-4.167851 -2.7561,-5.96815 -0.71423,-0.945886 -4.67138,-5.061376 -8.79366,-9.1455349 -6.53974,-6.47924897 -7.73932,-7.55169783 -9.41137,-8.4139352 -3.45371,-1.7810001 -2.86765,-1.7459254 -29.172238,-1.7459254 -26.295802,0 -25.712499,-0.034827 -29.172236,1.7417582 -1.703316,0.87465693 -2.861789,1.92746576 -10.422951,9.4722685 -7.065687,7.0504028 -8.640493,8.7571528 -9.296816,10.0757438 -1.292823,2.597364 -2.202079,6.175282 -1.176676,4.630208 0.241443,-0.363802 0.910371,-1.122513 1.486506,-1.686023 z"
         style="fill:#d8d3d3;stroke-width:0.264583" />
      <path
         inkscape:connector-curvature="0"
         id="path896"
         d="m -25.957886,50.377565 v -79.375 H 79.875449 185.70878 v 79.375 79.374995 H 79.875449 -25.957886 Z M 113.40466,102.55112 c 0.2175,-0.13818 -2.91344,-3.433043 -9.525,-10.023649 C 96.307008,84.978808 93.710782,82.550237 92.646664,82.019853 89.82305,80.612495 89.045368,80.548214 74.791528,80.543976 c -12.731787,-0.0038 -13.162497,-0.02032 -13.427605,-0.515684 -0.172466,-0.322257 -0.273891,-3.653531 -0.273891,-8.995833 0,-4.666234 -0.08708,-8.484061 -0.193506,-8.484061 -1.179393,0 -12.970843,-1.587354 -17.798161,-2.395971 -3.41974,-0.572836 -6.314035,-1.041993 -6.431769,-1.042567 -0.117735,-5.29e-4 -0.175358,4.136377 -0.128051,9.193226 l 0.08601,9.194271 0.702934,1.820135 c 0.386617,1.001074 1.153324,2.474076 1.703798,3.27334 1.287171,1.868916 17.14631,16.749742 18.96932,17.799148 1.972435,1.13542 3.929769,1.81949 5.95226,2.08027 2.212301,0.28525 49.009643,0.36178 49.451793,0.0809 z m 0.33746,-40.223448 c 3.35965,-1.205579 4.33792,-1.987314 12.43541,-9.93721 8.4834,-8.32876 8.95665,-8.847084 10.05143,-11.00873 1.48712,-2.936346 1.59024,-3.691239 1.59024,-11.641667 0,-11.360415 0.24065,-10.86939 -10.77229,-21.9793846 -8.58335,-8.65898705 -9.65495,-9.5244815 -13.1725,-10.6389999 l -1.85209,-0.5868238 H 87.283782 62.54524 l -1.852083,0.5868238 c -3.504311,1.1103248 -4.549288,1.9570285 -13.443919,10.8930528 -6.891205,6.9232757 -8.463677,8.6409507 -9.129516,9.9725297 -1.396228,2.792251 -1.63594,4.259506 -1.63594,10.01336 0,4.306202 -0.066,5.220959 -0.385512,5.343567 -0.212031,0.08137 -1.908672,-0.415597 -3.770312,-1.104358 C 25.137824,29.579661 17.737602,26.222019 9.0994062,21.700534 6.4800312,20.329476 4.3018568,19.301385 4.2590155,19.415886 4.1819132,19.621964 22.66402,48.201296 23.488231,49.150494 c 0.922179,1.062016 9.717958,5.012414 16.038259,7.20317 5.377683,1.864024 18.806097,4.869021 21.779593,4.873815 0.681537,0.0011 1.953532,0.114165 2.826657,0.251257 2.60657,0.409265 9.772418,1.073258 14.155209,1.311634 2.255573,0.12268 10.768542,0.207614 18.917709,0.188744 14.810982,-0.0343 14.817322,-0.03455 16.536462,-0.651442 z M 71.541074,40.547011 c -6.336911,-0.422905 -9.712251,-0.901896 -10.100908,-1.433417 -0.444961,-0.608518 -0.515745,-19.15304 -0.07624,-19.974256 0.267896,-0.500568 0.83502,-0.511773 25.90086,-0.511773 23.124364,0 25.642654,0.04087 25.787564,0.418515 0.20971,0.546508 0.20971,20.841462 0,21.38797 -0.14457,0.376735 -2.05291,0.414721 -19.116143,0.38051 -10.425549,-0.0209 -20.503359,-0.1413 -22.39513,-0.267549 z"
         style="fill:#df98a5;stroke-width:0.264583" />
      <path
         inkscape:connector-curvature="0"
         id="path894"
         d="m -25.957886,50.377565 v -79.375 H 79.875449 185.70878 v 79.375 79.374995 H 79.875449 -25.957886 Z M 113.84619,102.54614 c 0.0744,-0.12041 -4.35363,-4.682317 -9.84011,-10.137568 C 94.639366,83.095181 93.917641,82.439334 92.178574,81.66065 91.159928,81.204542 89.552585,80.707189 88.606699,80.555421 87.588458,80.392044 81.744762,80.278665 74.281361,80.277479 c -11.249353,-0.0019 -12.622827,-0.04702 -12.766146,-0.420513 -0.08833,-0.230182 -0.1606,-4.216508 -0.1606,-8.858501 v -8.439986 l -0.595312,-0.11185 C 60.431881,62.385111 57.485084,62.019941 54.210865,61.635136 50.936646,61.250334 45.87649,60.529749 42.966073,60.033838 40.055657,59.537927 37.37675,59.097157 37.012948,59.054353 l -0.661458,-0.07783 -0.07587,8.069792 c -0.04628,4.922105 0.03526,8.721222 0.209044,9.739879 0.318672,1.867961 1.207747,4.043169 2.43299,5.952543 1.016063,1.583399 16.661887,16.285845 18.804549,17.670713 1.434258,0.92701 3.917823,1.91099 5.484495,2.17295 1.284652,0.2148 50.506112,0.17956 50.639492,-0.0363 z m -0.77937,-39.872962 c 3.59558,-0.936529 4.72192,-1.797714 13.11071,-10.024266 8.10977,-7.952922 9.45325,-9.44845 10.47815,-11.664055 1.33757,-2.891528 1.47307,-4.080952 1.36533,-11.985152 -0.14865,-10.905955 0.10093,-10.429351 -11.53665,-22.0310416 -8.75258,-8.7255959 -9.31813,-9.1628648 -13.1377,-10.1577362 -2.36017,-0.614748 -49.765581,-0.614748 -52.12576,0 -3.863594,1.0063384 -4.321117,1.3655764 -13.778643,10.8187368 -7.760351,7.756768 -8.847002,8.945562 -9.582049,10.482728 -1.354058,2.831666 -1.63272,4.551931 -1.637099,10.106319 -0.0034,4.341847 -0.05604,4.960937 -0.421659,4.960937 -0.575593,0 -6.878976,-2.379048 -11.35621,-4.286107 C 20.46661,27.198861 10.723027,22.459822 6.5301353,20.180077 5.1170354,19.41175 3.888575,18.855408 3.8002227,18.943761 3.6642057,19.079778 10.008702,28.960595 20.968178,45.680864 l 2.557778,3.90226 3.105475,1.553041 c 12.74114,6.371818 27.385566,9.984925 46.23256,11.406614 2.037291,0.153678 4.180416,0.316859 4.7625,0.362624 0.582083,0.04576 8.44496,0.103222 17.473057,0.127686 13.974512,0.03786 16.645532,-0.01564 17.967272,-0.359911 z M 75.377532,40.572467 C 69.66599,40.312339 62.108241,39.561142 61.687223,39.211728 61.431001,38.999082 61.354615,36.666653 61.354615,29.055519 c 0,-9.497444 0.01982,-9.890778 0.511773,-10.154063 0.342326,-0.183205 8.714195,-0.273891 25.285103,-0.273891 16.570909,0 24.942779,0.09069 25.285099,0.273891 0.49286,0.263771 0.51178,0.664374 0.51178,10.838609 0,10.174235 -0.0189,10.574838 -0.51178,10.838609 -0.59348,0.317621 -30.057227,0.312687 -37.059058,-0.0062 z"
         style="fill:#d87588;stroke-width:0.264583" />
      <path
         inkscape:connector-curvature="0"
         id="path892"
         d="m -25.957886,50.377565 v -79.375 H 79.875449 185.70878 v 79.375 79.374995 H 79.875449 -25.957886 Z M 113.92113,102.60643 C 114.12141,102.0845 96.100811,83.927941 93.964176,82.498921 93.200006,81.987831 91.890319,81.310717 91.053759,80.994222 89.581535,80.43724 89.08714,80.414359 75.642116,80.280985 L 61.75149,80.14319 61.68179,71.357116 61.61209,62.571044 60.755745,62.443981 C 60.284762,62.374099 57.280032,62.005577 54.078574,61.625045 50.877115,61.244516 45.87649,60.52795 42.966073,60.032677 40.055657,59.537403 37.37675,59.097157 37.012948,59.054353 l -0.661458,-0.07783 -0.06978,8.849485 c -0.05897,7.479511 -0.0042,9.075192 0.354066,10.307449 0.501044,1.723536 1.469099,3.70568 2.545186,5.211406 1.074229,1.503132 16.853845,16.176519 18.538037,17.238437 1.779542,1.12203 3.744727,1.84663 5.812147,2.14304 0.91296,0.1309 12.587647,0.25269 25.943751,0.27065 22.032243,0.0296 24.298883,-0.007 24.446233,-0.39056 z m -0.10617,-39.985438 c 3.83917,-1.451867 4.42514,-1.921288 13.03454,-10.441911 11.56398,-11.444734 11.28069,-10.88123 11.28069,-22.439016 0,-11.366717 0.20564,-10.939769 -10.57905,-21.9644277 -8.13705,-8.31810847 -9.88027,-9.7422336 -13.29316,-10.8598804 l -1.97107,-0.6454836 H 87.283782 62.280657 l -1.971074,0.6454836 c -3.320484,1.0873838 -5.062125,2.50881014 -13.53144,11.0435779 -8.297371,8.3614922 -8.95948,9.1963262 -10.004428,12.6143302 -0.481042,1.57347 -0.554517,2.48946 -0.554517,6.912915 0,3.769995 -0.08664,5.171008 -0.332377,5.374957 -0.389985,0.32366 -6.645209,-1.983139 -13.161373,-4.853641 C 19.104157,26.412644 9.9778573,21.883993 5.3477018,19.384718 4.4484307,18.899308 3.6287462,18.586073 3.5261805,18.688639 3.3531139,18.861703 16.613131,39.535538 18.275453,41.684389 c 0.410207,0.530264 0.745828,1.095811 0.745828,1.25677 0,0.160962 0.119063,0.292656 0.264584,0.292656 0.145521,0 0.264729,0.148828 0.264906,0.330729 1.77e-4,0.181901 0.294431,0.672711 0.653896,1.090687 0.359469,0.417978 0.724533,0.983525 0.811258,1.256771 0.08673,0.273248 0.268721,0.496813 0.404437,0.496813 0.135712,0 0.246753,0.111151 0.246753,0.247002 0,0.135853 0.378076,0.855202 0.840171,1.598557 0.779753,1.25436 1.079426,1.469649 4.167187,2.99376 1.829859,0.903214 3.386548,1.650876 3.459309,1.66147 0.07276,0.01061 0.489479,0.176329 0.926041,0.368294 2.053262,0.90287 2.623654,1.133568 3.910457,1.581595 0.759664,0.264496 2.274179,0.798684 3.365585,1.187087 6.099929,2.170801 18.760427,5.022263 24.738542,5.571742 0.873125,0.08025 2.004219,0.205888 2.513542,0.279191 2.397209,0.345006 3.99538,0.506695 8.995833,0.910114 5.217936,0.420965 6.391945,0.442692 22.489584,0.416234 14.967344,-0.02461 15.238274,-0.03436 16.741594,-0.602869 z M 74.319199,40.413169 C 70.749451,40.220097 62.75411,39.444273 62.211326,39.238287 l -0.598501,-0.227132 0.06933,-9.993358 0.06933,-9.993357 H 87.151491 112.55149 V 29.740065 40.45569 l -18.388541,0.0181 c -10.113698,0.0099 -19.043385,-0.01733 -19.84375,-0.06061 z"
         style="fill:#9b9091;stroke-width:0.264583" />
      <path
         inkscape:connector-curvature="0"
         id="path890"
         d="m -25.957886,50.377565 v -79.375 H 79.875449 185.70878 v 79.375 79.374995 H 79.875449 -25.957886 Z M 113.92113,102.60643 C 114.12141,102.0845 96.100811,83.927941 93.964176,82.498921 93.200006,81.987831 91.890319,81.310717 91.053759,80.994222 89.581535,80.43724 89.08714,80.414359 75.642116,80.280985 L 61.75149,80.14319 61.619199,71.015065 c -0.07276,-5.020469 -0.0635,-9.220734 0.02058,-9.333926 0.08409,-0.113191 2.048619,0.02705 4.365625,0.311656 8.690949,1.067522 12.146439,1.210436 29.348158,1.213802 18.623718,0.0037 17.444778,0.110419 21.431258,-1.94102 1.60439,-0.825619 2.95041,-2.040449 10.06467,-9.083742 11.56419,-11.448814 11.2807,-10.884836 11.2807,-22.44177 0,-11.366717 0.20564,-10.939769 -10.57905,-21.9644277 -8.13705,-8.31810847 -9.88027,-9.7422336 -13.29316,-10.8598804 l -1.97107,-0.6454836 H 87.283782 62.280657 l -1.971074,0.6454836 c -3.320484,1.0873838 -5.062125,2.50881014 -13.53144,11.0435779 -8.297371,8.3614922 -8.95948,9.1963262 -10.004428,12.6143302 -0.481042,1.57347 -0.554517,2.48946 -0.554517,6.912915 0,3.769995 -0.08664,5.171008 -0.332377,5.374957 -0.389985,0.32366 -6.645209,-1.983139 -13.161373,-4.853641 C 19.104157,26.412644 9.9778573,21.883993 5.3477018,19.384718 4.4484307,18.899308 3.629278,18.585539 3.5273632,18.687456 3.368584,18.846235 9.0559087,27.725149 20.591417,45.327436 l 2.845871,4.34258 2.620643,1.333413 c 1.441352,0.733377 4.287517,2.007716 6.324809,2.831862 l 3.704167,1.498446 0.136133,11.2141 c 0.115911,9.548442 0.200472,11.37512 0.569315,12.298164 0.664961,1.6641 1.535525,3.30335 2.389227,4.498862 1.072562,1.502 16.852109,16.175815 18.537418,17.238437 1.779542,1.12203 3.744727,1.84663 5.812147,2.14304 0.91296,0.1309 12.587647,0.25269 25.943751,0.27065 22.032242,0.0296 24.298882,-0.007 24.446232,-0.39056 z M 74.319199,40.413169 C 70.749451,40.220097 62.75411,39.444273 62.211326,39.238287 l -0.598501,-0.227132 0.06933,-9.993358 0.06933,-9.993357 H 87.151491 112.55149 V 29.740065 40.45569 l -18.388541,0.0181 c -10.113698,0.0099 -19.043385,-0.01733 -19.84375,-0.06061 z"
         style="fill:#d24d66;stroke-width:0.264583" />
      <path
         inkscape:connector-curvature="0"
         id="path888"
         d="m -25.957886,50.377565 v -79.375 H 79.875449 185.70878 v 79.375 79.374995 H 79.875449 -25.957886 Z M 114.27128,102.68851 c 0,-0.18763 -4.43508,-4.813358 -9.85573,-10.27939 C 95.662817,83.583104 94.367356,82.377334 92.840033,81.635048 89.691679,80.104929 88.74483,80.020566 74.663004,80.015492 l -12.753071,-0.0046 -0.07922,-9.061979 c -0.04357,-4.984088 -0.05055,-9.110496 -0.0155,-9.169794 0.03504,-0.0593 2.416294,0.150127 5.291667,0.465394 9.504072,1.042059 13.045575,1.191067 28.775864,1.210733 17.019366,0.02127 16.762826,0.04345 20.451146,-1.767419 1.41862,-0.696505 2.82961,-1.891821 7.45049,-6.311641 8.74043,-8.360116 11.62811,-11.438077 12.757,-13.597585 1.64484,-3.146521 1.807,-4.226865 1.807,-12.038542 0,-11.155579 0.0978,-10.94886 -10.14393,-21.43125 -8.16098,-8.35270533 -9.36996,-9.4486704 -11.69619,-10.6028252 -3.52743,-1.7501206 -2.16375,-1.6630385 -27.634942,-1.7647089 -23.934974,-0.095539 -26.160358,-0.02078 -28.990375,0.9738916 -3.131164,1.1005148 -4.218353,1.9983571 -12.832567,10.5976303 -7.713769,7.7003932 -8.425389,8.4880822 -9.324274,10.3210122 -1.537592,3.135326 -1.771481,4.470114 -1.771481,10.109756 0,2.974242 -0.10129,4.971494 -0.252129,4.971494 -0.391973,0 -6.411334,-2.271527 -9.93433,-3.748921 C 21.176329,27.24053 14.892226,24.229725 8.8723805,21.071135 5.634653,19.372312 3.5238733,18.408723 3.3722988,18.560297 3.1499271,18.782669 10.262642,29.918931 20.229673,44.953607 l 3.157233,4.7625 2.910417,1.505257 c 1.600729,0.827891 4.339167,2.068041 6.085417,2.755889 1.74625,0.687848 3.294062,1.355892 3.439583,1.484543 0.170643,0.15086 0.232365,3.775442 0.173837,10.208694 -0.100547,11.052148 0.0071,12.100578 1.568725,15.272602 1.150329,2.336649 2.025235,3.290223 9.105355,9.924063 9.844043,9.223545 10.105819,9.448725 12.140293,10.443125 3.601979,1.76056 2.225095,1.68278 30.126895,1.70196 20.512152,0.0141 25.333852,-0.0475 25.333852,-0.32373 z M 72.334824,40.141614 C 69.487746,39.952027 62.285465,39.217506 62.090189,39.096819 61.976667,39.026657 61.883782,34.510836 61.883782,29.061663 v -9.90759 l 25.333855,0.06748 25.333853,0.06747 v 10.451042 10.451042 l -19.446874,0.01929 c -10.695782,0.01061 -20.042188,-0.02035 -20.769792,-0.0688 z"
         style="fill:#cc304d;stroke-width:0.264583" />
      <path
         inkscape:connector-curvature="0"
         id="path886"
         d="m -25.957886,50.377565 v -79.375 H 79.875449 185.70878 v 79.375 79.374995 H 79.875449 -25.957886 Z M 114.47343,102.76163 c 0.0447,-0.23221 -4.06447,-4.57787 -9.78597,-10.349139 C 94.224605,81.858637 93.89912,81.588434 90.194199,80.380781 88.890975,79.955984 87.3373,79.896268 75.318244,79.809024 l -13.420743,-0.09742 -0.07301,-8.912333 c -0.04015,-4.901782 -0.04891,-8.95627 -0.01945,-9.009975 0.02945,-0.05371 1.577266,0.09328 3.439584,0.326638 10.537849,1.320432 11.282246,1.354418 29.712079,1.356508 l 17.594786,0.0021 1.7837,-0.693954 c 3.39112,-1.319446 4.47189,-2.208205 13.15201,-10.81554 9.21292,-9.135663 9.56361,-9.587177 10.60307,-13.651444 0.45118,-1.764107 0.52267,-2.936738 0.52267,-8.573556 0,-5.636818 -0.0715,-6.809449 -0.52267,-8.573556 -0.98109,-3.836045 -1.55392,-4.594854 -9.97924,-13.2192365 -7.98938,-8.17815446 -9.41107,-9.4508585 -11.84172,-10.6007377 -3.20582,-1.5165982 -2.70333,-1.4926961 -29.716416,-1.4135295 l -24.80141,0.072685 -1.719791,0.6185815 c -3.346654,1.2037389 -4.550524,2.1750693 -12.653471,10.2093353 -8.363656,8.2927689 -9.598771,9.8090489 -10.800591,13.2592549 -0.686546,1.970958 -0.74028,2.442993 -0.834623,7.332099 -0.05546,2.874036 -0.19626,5.225521 -0.312891,5.225521 -0.368432,0 -6.929096,-2.534529 -10.616242,-4.101285 C 20.167007,26.574624 12.605255,22.907523 7.6254654,20.213607 4.0495501,18.279143 2.8816978,17.874825 2.8816978,18.571283 c 0,0.206571 10.2706912,15.965315 17.4215322,26.730571 l 3.001738,4.518977 2.42222,1.25621 c 1.33222,0.690915 4.208156,1.983407 6.390969,2.872209 l 3.96875,1.615998 -0.0828,1.573347 c -0.04554,0.865339 -0.138089,5.28606 -0.205669,9.823821 -0.100012,6.715659 -0.04814,8.608893 0.278853,10.17715 0.469587,2.25216 1.81383,5.192009 3.083287,6.743136 0.779349,0.952273 10.618656,10.274202 15.969584,15.129862 2.076167,1.884006 4.810432,3.328806 7.342275,3.879696 1.346599,0.293 6.408772,0.3526 26.792105,0.31547 22.200648,-0.0404 25.140798,-0.0925 25.208888,-0.4461 z M 74.406403,40.036521 C 69.266348,39.800685 62.409544,39.10291 62.089765,38.783132 61.972788,38.666154 61.908351,34.232124 61.946576,28.929734 l 0.0695,-9.640711 h 25.135417 25.135417 v 10.451042 10.451042 l -16.66875,0.02693 c -9.167813,0.01482 -18.713104,-0.06687 -21.211755,-0.181515 z"
         style="fill:#c60c2f;stroke-width:0.264583" />
      <path
         inkscape:connector-curvature="0"
         id="path884"
         d="m 71.144199,63.33447 c -7.22806,-0.312804 -9.203132,-0.519745 -9.380858,-0.98289 -0.08613,-0.224449 -0.09964,-0.46504 -0.03003,-0.534651 0.06961,-0.06961 1.625269,0.06471 3.457019,0.298492 1.83175,0.233778 4.932754,0.569772 6.891123,0.746654 1.958367,0.176879 3.560668,0.416788 3.560668,0.533128 0,0.11634 -0.02977,0.192778 -0.06615,0.169862 -0.03638,-0.02291 -2.030677,-0.126685 -4.431772,-0.230595 z M 33.441073,58.527467 C 32.85899,58.383328 30.467768,57.808409 28.127245,57.249871 25.786722,56.691333 22.374756,55.747323 20.545099,55.152072 L 17.218448,54.069796 9.3224685,44.943097 C 4.9796796,39.923414 1.3879926,35.63985 1.3409443,35.424066 1.2044379,34.798025 1.7341602,34.93732 5.9306239,36.630963 c 2.1793914,0.879578 5.4508141,2.132658 7.2698241,2.784626 1.81901,0.651965 3.577164,1.322708 3.907007,1.490541 0.329843,0.16783 1.856507,2.240899 3.392591,4.606814 l 2.792878,4.301667 2.42824,1.259319 c 1.335535,0.692626 4.21418,1.985049 6.396993,2.872055 l 3.96875,1.612735 0.08456,1.022223 c 0.04651,0.562222 0.01447,1.301462 -0.07119,1.642756 -0.173805,0.692497 -0.800359,0.764072 -2.659204,0.303768 z"
         style="fill:#a00b27;stroke-width:0.264583" />
      <path
         inkscape:connector-curvature="0"
         id="path882"
         d="m 62.87597,62.355657 c -0.545704,-0.05708 -0.992188,-0.212685 -0.992188,-0.345784 0,-0.133096 0.327422,-0.180432 0.727604,-0.10519 3.27541,0.615852 3.163644,0.586653 2.182813,0.570248 -0.509323,-0.0085 -1.372526,-0.06219 -1.918229,-0.119274 z M 29.988626,57.261486 C 24.787137,56.028591 19.624272,54.515524 18.143161,53.78997 17.2956,53.374773 15.292458,51.226407 9.5771167,44.602909 5.4742335,39.848085 2.2189509,35.921695 2.3431543,35.877602 c 0.124206,-0.0441 2.1714248,0.687551 4.5493729,1.62588 2.3779507,0.938329 5.6966938,2.201567 7.3749828,2.807195 1.678292,0.605631 3.182329,1.183672 3.342309,1.284536 0.159978,0.100867 1.420228,1.9098 2.800551,4.019852 1.380324,2.110052 2.733784,4.031708 3.007691,4.270349 0.80867,0.704545 4.727221,2.59662 8.700096,4.200842 l 3.704166,1.495721 0.07997,1.366544 0.07997,1.366544 -0.873723,-0.02355 c -0.480547,-0.01296 -2.784512,-0.476467 -5.11992,-1.030023 z"
         style="fill:#76071c;stroke-width:0.264583" />
    </g>
    <g
       id="g862" />
  </g>
</svg>
