<?xml version="1.0" encoding="UTF-8" standalone="no"?>
<svg
   xmlns:dc="http://purl.org/dc/elements/1.1/"
   xmlns:cc="http://creativecommons.org/ns#"
   xmlns:rdf="http://www.w3.org/1999/02/22-rdf-syntax-ns#"
   xmlns:svg="http://www.w3.org/2000/svg"
   xmlns="http://www.w3.org/2000/svg"
   xmlns:sodipodi="http://sodipodi.sourceforge.net/DTD/sodipodi-0.dtd"
   xmlns:inkscape="http://www.inkscape.org/namespaces/inkscape"
   inkscape:version="1.0beta2 (2b71d25, 2019-12-03)"
   sodipodi:docname="flowable.svg"
   id="svg2432"
   version="1.1"
   viewBox="0 0 223 223"
   height="223"
   width="223">
  <metadata
     id="metadata2438">
    <rdf:RDF>
      <cc:Work
         rdf:about="">
        <dc:format>image/svg+xml</dc:format>
        <dc:type
           rdf:resource="http://purl.org/dc/dcmitype/StillImage" />
        <dc:title></dc:title>
      </cc:Work>
    </rdf:RDF>
  </metadata>
  <defs
     id="defs2436" />
  <sodipodi:namedview
     inkscape:current-layer="g3011"
     inkscape:window-maximized="0"
     inkscape:window-y="26"
     inkscape:window-x="0"
     inkscape:cy="33.281357"
     inkscape:cx="414.27366"
     inkscape:zoom="1.0052161"
     showgrid="false"
     id="namedview2434"
     inkscape:window-height="1054"
     inkscape:window-width="2560"
     inkscape:pageshadow="2"
     inkscape:pageopacity="0"
     guidetolerance="10"
     gridtolerance="10"
     objecttolerance="10"
     borderopacity="1"
     inkscape:document-rotation="0"
     bordercolor="#666666"
     pagecolor="#ffffff" />
  <g
     id="g2430"
     fill="none">
    <g
       transform="translate(13.87632,3.269802)"
       id="g3011">
      <g
         style="stroke-width:0.857255"
         transform="matrix(1.1665144,0,0,1.1665144,-16.25575,10.861622)"
         id="g3035">
        <g
           id="g3022"
           transform="matrix(0.85712275,0,0,0.85712275,8.6182996,51.95315)"
           style="stroke-width:1.00015">
          <path
             fill="#A8BAC1"
             d="m 35.66049,136.66882 c 0.460184,0.46019 0.690714,1.13863 0.690714,2.03533 v 3.69462 h -0.868652 v -3.60959 c 0,-0.66267 -0.160407,-1.16756 -0.482974,-1.51467 -0.321691,-0.34711 -0.776615,-0.52066 -1.363021,-0.52066 -0.668801,0 -1.194725,0.20423 -1.577774,0.61182 -0.383048,0.4076 -0.575011,0.97121 -0.575011,1.68998 v 3.34312 h -0.867775 v -3.60959 c 0,-0.66267 -0.161284,-1.16756 -0.482974,-1.51467 -0.321691,-0.34711 -0.780122,-0.52066 -1.375293,-0.52066 -0.660912,0 -1.184207,0.20423 -1.571638,0.61182 -0.387431,0.4076 -0.581147,0.97121 -0.581147,1.68998 v 3.34312 H 25.73717 v -6.37157 h 0.830961 v 1.16229 c 0.228777,-0.38743 0.546961,-0.68633 0.954553,-0.89582 0.407591,-0.21037 0.875664,-0.31468 1.405971,-0.31468 0.538197,0 1.004516,0.11307 1.399836,0.33834 0.39532,0.22615 0.690715,0.56186 0.88706,1.00539 0.235789,-0.41986 0.576764,-0.74856 1.020293,-0.98698 0.444407,-0.23842 0.951924,-0.35675 1.522552,-0.35675 0.807294,0 1.441033,0.22965 1.902094,0.68983 z m 7.466376,-0.0666 c 0.447912,0.41636 0.672307,1.03169 0.672307,1.84775 v 3.94882 h -0.831838 v -0.994 c -0.195468,0.33133 -0.482974,0.58991 -0.86164,0.77574 -0.379542,0.18583 -0.830084,0.27874 -1.351626,0.27874 -0.71701,0 -1.287638,-0.17005 -1.711884,-0.50927 -0.423369,-0.33922 -0.635492,-0.78713 -0.635492,-1.34461 0,-0.54083 0.197221,-0.97647 0.592541,-1.3078 0.39532,-0.33133 1.025553,-0.497 1.889823,-0.497 h 2.041463 v -0.38743 c 0,-0.54872 -0.154271,-0.96683 -0.464566,-1.25346 -0.309419,-0.28662 -0.761714,-0.43038 -1.356886,-0.43038 -0.407591,0 -0.799405,0.0666 -1.173688,0.19985 -0.375159,0.13324 -0.697727,0.31731 -0.965948,0.55135 l -0.391814,-0.64163 c 0.326073,-0.27523 0.717887,-0.48648 1.173688,-0.63637 0.456678,-0.14901 0.937899,-0.22351 1.442787,-0.22351 0.839726,0 1.483984,0.20774 1.932773,0.62322 z m -0.97822,4.84552 c 0.34974,-0.22264 0.610949,-0.54345 0.781874,-0.96332 v -1.04133 H 40.9136 c -1.100936,0 -1.651403,0.37955 -1.651403,1.13863 0,0.37078 0.142876,0.66354 0.428628,0.87829 0.284876,0.21388 0.684579,0.32082 1.198232,0.32082 0.489109,0 0.908973,-0.11132 1.259589,-0.33309 z m 6.628403,-2.24745 -1.516416,1.38143 v 1.81707 h -0.867776 v -8.98805 h 0.867776 v 6.09284 l 3.840126,-3.47637 h 1.075515 l -2.751462,2.60421 3.008289,3.76737 h -1.063244 z m 5.100591,-3.17308 h 0.867776 v 6.37158 H 53.87764 Z m -0.01227,-1.57514 c -0.122716,-0.12096 -0.183197,-0.26647 -0.183197,-0.43564 0,-0.16128 0.06048,-0.30328 0.183197,-0.42425 0.121839,-0.12096 0.272604,-0.18144 0.452295,-0.18144 0.179691,0 0.330456,0.0587 0.452295,0.17531 0.122716,0.11745 0.183197,0.25682 0.183197,0.41811 0,0.17793 -0.06048,0.32695 -0.183197,0.44791 -0.121839,0.12184 -0.272604,0.18232 -0.452295,0.18232 -0.179691,0 -0.330456,-0.0605 -0.452295,-0.18232 z m 8.738237,2.22291 c 0.476838,0.46456 0.715257,1.14038 0.715257,2.02919 v 3.69462 h -0.868652 v -3.6096 c 0,-0.66266 -0.166543,-1.16755 -0.501382,-1.51466 -0.333962,-0.34711 -0.8108,-0.52066 -1.430514,-0.52066 -0.692468,0 -1.241182,0.20423 -1.644391,0.61182 -0.403209,0.40759 -0.60569,0.97121 -0.60569,1.68997 v 3.34313 h -0.867777 v -6.37158 h 0.831838 v 1.17457 c 0.235789,-0.38743 0.564492,-0.68809 0.984355,-0.90196 0.418987,-0.21388 0.906344,-0.32082 1.461194,-0.32082 0.806418,0 1.448922,0.23141 1.925762,0.69598 z m 9.287827,-0.64777 v 5.59584 c 0,1.08253 -0.266468,1.88369 -0.800281,2.40435 -0.533814,0.52067 -1.339355,0.781 -2.414871,0.781 -0.595171,0 -1.159663,-0.0868 -1.694353,-0.26033 -0.533814,-0.17356 -0.967702,-0.41373 -1.301664,-0.72052 l 0.440024,-0.6539 c 0.309419,0.27436 0.686331,0.48824 1.130738,0.64163 0.444406,0.15339 0.911602,0.23053 1.400712,0.23053 0.815183,0 1.413861,-0.18758 1.796909,-0.56362 0.383048,-0.37516 0.575011,-0.95893 0.575011,-1.75045 v -0.8108 c -0.269098,0.40321 -0.621468,0.71 -1.057985,0.92037 -0.435641,0.2095 -0.918615,0.31468 -1.448922,0.31468 -0.60306,0 -1.150899,-0.13148 -1.644391,-0.39357 -0.493493,-0.26208 -0.880924,-0.63023 -1.161417,-1.10181 -0.281369,-0.47245 -0.422493,-1.00802 -0.422493,-1.60494 0,-0.59781 0.141124,-1.13074 0.422493,-1.59969 0.280493,-0.46807 0.666171,-0.83096 1.155281,-1.08954 0.48911,-0.25858 1.039578,-0.38743 1.650527,-0.38743 0.546085,0 1.039577,0.10869 1.479601,0.32695 0.440023,0.21738 0.795023,0.53293 1.064121,0.94491 v -1.22365 z m -2.029192,5.06904 c 0.374283,-0.1981 0.666171,-0.47421 0.873911,-0.83008 0.207741,-0.355 0.312049,-0.75909 0.312049,-1.21051 0,-0.45229 -0.104308,-0.85462 -0.312049,-1.20524 -0.20774,-0.35149 -0.496998,-0.62585 -0.867775,-0.82395 -0.370777,-0.1981 -0.79327,-0.29715 -1.265725,-0.29715 -0.464567,0 -0.882677,0.0973 -1.253454,0.29101 -0.370777,0.19372 -0.660035,0.46808 -0.868652,0.82395 -0.20774,0.355 -0.311172,0.75909 -0.311172,1.21138 0,0.45142 0.103432,0.85551 0.311172,1.21051 0.208617,0.35587 0.497875,0.63198 0.868652,0.83008 0.370777,0.1981 0.788887,0.29715 1.253454,0.29715 0.464566,0 0.88443,-0.0991 1.259589,-0.29715 z m 64.981488,-4.71228 c 0.49086,0.27085 0.86778,0.65215 1.14827,1.14476 0.28049,0.49262 0.41197,1.05448 0.41197,1.68384 0,0.63812 -0.13148,1.20349 -0.41197,1.6961 -0.28049,0.49262 -0.65741,0.87391 -1.14827,1.14477 -0.4821,0.26997 -1.02555,0.40583 -1.63913,0.40583 -0.52593,0 -0.99049,-0.10693 -1.41123,-0.32169 -0.42074,-0.21387 -0.76259,-0.5268 -1.03432,-0.93877 v 3.54911 h -0.86778 v -8.7207 h 0.83272 v 1.25959 c 0.25419,-0.41987 0.60481,-0.74331 1.03432,-0.96946 0.42074,-0.22527 0.90283,-0.33834 1.44629,-0.33834 0.60481,0 1.14827,0.13498 1.63913,0.40496 z m -0.4821,5.00329 c 0.36815,-0.20598 0.65741,-0.49875 0.86778,-0.87829 0.2016,-0.37954 0.30679,-0.81168 0.30679,-1.2964 0,-0.48473 -0.10519,-0.91424 -0.30679,-1.29027 -0.21037,-0.37516 -0.49963,-0.66793 -0.86778,-0.87742 -0.35938,-0.21037 -0.77135,-0.31555 -1.21839,-0.31555 -0.4558,0 -0.86778,0.10518 -1.22716,0.31555 -0.36814,0.20949 -0.64864,0.50226 -0.85901,0.87742 -0.21037,0.37603 -0.31555,0.80554 -0.31555,1.29027 0,0.48472 0.10518,0.91686 0.31555,1.2964 0.21037,0.37954 0.49087,0.67231 0.85901,0.87829 0.35938,0.20599 0.77136,0.30855 1.22716,0.30855 0.44704,0 0.85901,-0.10256 1.21839,-0.30855 z m 9.65072,-1.90823 h -5.38196 c 0.0526,0.66267 0.30679,1.19736 0.77135,1.60495 0.46457,0.40759 1.05185,0.61183 1.76185,0.61183 0.40321,0 0.77136,-0.071 1.10444,-0.21213 0.33309,-0.14112 0.62235,-0.34886 0.86778,-0.62322 l 0.49086,0.55661 c -0.28926,0.33922 -0.64864,0.5978 -1.06938,0.77574 -0.4295,0.17706 -0.90284,0.26646 -1.42,0.26646 -0.6574,0 -1.24468,-0.13937 -1.75308,-0.41811 -0.50839,-0.27874 -0.90284,-0.66441 -1.19209,-1.15703 -0.2805,-0.49262 -0.42951,-1.04922 -0.42951,-1.67156 0,-0.62147 0.14025,-1.17895 0.41198,-1.67157 0.27172,-0.49261 0.64864,-0.87566 1.12197,-1.1509 0.4821,-0.27435 1.01679,-0.41109 1.61283,-0.41109 0.59605,0 1.13074,0.13674 1.60407,0.41109 0.47334,0.27524 0.84148,0.65653 1.11321,1.14477 0.26296,0.48911 0.40321,1.04834 0.40321,1.6777 z m -4.6632,-2.17382 c -0.42074,0.39182 -0.65741,0.90196 -0.71876,1.5322 h 4.56677 c -0.0614,-0.63024 -0.29802,-1.14038 -0.71876,-1.5322 -0.42074,-0.39181 -0.94666,-0.58728 -1.56901,-0.58728 -0.62234,0 -1.1395,0.19547 -1.56024,0.58728 z m 8.42356,-0.99925 c 0.40321,-0.21826 0.90284,-0.32695 1.49888,-0.32695 v 0.83534 l -0.2016,-0.0123 c -0.6837,0 -1.20963,0.20599 -1.59531,0.61796 -0.38567,0.41198 -0.56975,0.98962 -0.56975,1.73205 v 3.2467 h -0.86777 v -6.37157 h 0.82395 v 1.24732 c 0.21037,-0.42776 0.50839,-0.7512 0.9116,-0.96858 z m 3.57629,5.92892 c -0.4821,-0.14901 -0.85025,-0.33747 -1.12198,-0.56362 l 0.39445,-0.67756 c 0.27172,0.20949 0.60481,0.38129 1.01678,0.51453 0.40321,0.13323 0.82395,0.19985 1.27099,0.19985 0.58728,0 1.01679,-0.0912 1.29728,-0.27261 0.28049,-0.18144 0.42074,-0.43827 0.42074,-0.7696 0,-0.23404 -0.0701,-0.41723 -0.2279,-0.55047 -0.15778,-0.13323 -0.35062,-0.23403 -0.58728,-0.30328 -0.23667,-0.0684 -0.55222,-0.13499 -0.9379,-0.19985 -0.52593,-0.0964 -0.94667,-0.19547 -1.26222,-0.29627 -0.31556,-0.10168 -0.58728,-0.27261 -0.81519,-0.51541 -0.2279,-0.24192 -0.33308,-0.57676 -0.33308,-1.00539 0,-0.53294 0.21913,-0.96858 0.66617,-1.3078 0.4558,-0.33922 1.07815,-0.50839 1.8758,-0.50839 0.41197,0 0.83271,0.0543 1.24469,0.16303 0.42074,0.10869 0.76259,0.25245 1.02555,0.43039 l -0.37691,0.68983 c -0.52593,-0.36289 -1.15704,-0.54433 -1.89333,-0.54433 -0.55222,0 -0.97296,0.0964 -1.25346,0.29014 -0.28049,0.19371 -0.42074,0.44791 -0.42074,0.76346 0,0.24193 0.0789,0.43564 0.23667,0.58115 0.15778,0.14551 0.35938,0.25244 0.59605,0.32081 0.23666,0.0692 0.56099,0.13937 0.97296,0.21213 0.51716,0.0973 0.92913,0.19371 1.23592,0.29101 0.30679,0.0964 0.57852,0.26208 0.79765,0.49612 0.21914,0.23404 0.32432,0.55748 0.32432,0.96945 0,0.55661 -0.2279,0.99926 -0.70123,1.32621 -0.46456,0.32695 -1.11321,0.49086 -1.94592,0.49086 -0.52592,0 -1.02555,-0.0754 -1.49888,-0.22439 z m 6.9422,-0.19372 c -0.49963,-0.27874 -0.89407,-0.66441 -1.17456,-1.15703 -0.28926,-0.49262 -0.42951,-1.04922 -0.42951,-1.67156 0,-0.62147 0.14025,-1.17895 0.42951,-1.67157 0.28049,-0.49261 0.67493,-0.87566 1.17456,-1.1509 0.49086,-0.27435 1.05185,-0.41109 1.67419,-0.41109 0.61358,0 1.17457,0.13674 1.6742,0.41109 0.49962,0.27524 0.8853,0.65829 1.1658,1.1509 0.28049,0.49262 0.42074,1.0501 0.42074,1.67157 0,0.62234 -0.14025,1.17894 -0.42074,1.67156 -0.2805,0.49262 -0.66618,0.87829 -1.1658,1.15703 -0.49963,0.27874 -1.06062,0.41811 -1.6742,0.41811 -0.62234,0 -1.18333,-0.13937 -1.67419,-0.41811 z m 2.90135,-0.6539 c 0.35938,-0.20598 0.64864,-0.49875 0.85025,-0.87829 0.2016,-0.37954 0.30678,-0.81168 0.30678,-1.2964 0,-0.48473 -0.10518,-0.91599 -0.30678,-1.29553 -0.20161,-0.37954 -0.49087,-0.67231 -0.85025,-0.8783 -0.35938,-0.20598 -0.77136,-0.30941 -1.22716,-0.30941 -0.4558,0 -0.86777,0.10343 -1.22715,0.30941 -0.36815,0.20599 -0.64864,0.49876 -0.85901,0.8783 -0.21037,0.37954 -0.31556,0.8108 -0.31556,1.29553 0,0.48472 0.10519,0.91686 0.31556,1.2964 0.21037,0.37954 0.49086,0.67231 0.85901,0.87829 0.35938,0.20599 0.77135,0.30855 1.22715,0.30855 0.4558,0 0.86778,-0.10256 1.22716,-0.30855 z m 9.24751,-4.71228 c 0.47333,0.46457 0.71,1.14038 0.71,2.02919 v 3.69462 h -0.86778 v -3.60959 c 0,-0.66267 -0.16654,-1.16756 -0.49963,-1.51467 -0.33308,-0.34711 -0.80642,-0.52066 -1.42876,-0.52066 -0.69247,0 -1.24469,0.20423 -1.6479,0.61182 -0.40321,0.4076 -0.60481,0.97121 -0.60481,1.68998 v 3.34312 h -0.86778 v -6.37157 h 0.83272 v 1.17456 c 0.23666,-0.38743 0.56098,-0.68808 0.98172,-0.90196 0.42074,-0.21388 0.91161,-0.32081 1.46383,-0.32081 0.80642,0 1.44629,0.2314 1.92839,0.69597 z m 7.48566,-0.0727 c 0.44703,0.41636 0.67493,1.03169 0.67493,1.84775 v 3.94882 h -0.83271 v -0.994 c -0.19284,0.33133 -0.4821,0.58991 -0.85901,0.77574 -0.37691,0.18582 -0.83271,0.27874 -1.34987,0.27874 -0.71877,0 -1.28852,-0.17005 -1.71802,-0.50927 -0.42074,-0.33922 -0.63111,-0.78714 -0.63111,-1.34462 0,-0.54082 0.19284,-0.97646 0.59604,-1.3078 0.39445,-0.33133 1.01679,-0.49699 1.88457,-0.49699 h 2.04234 v -0.38744 c 0,-0.54871 -0.15778,-0.96682 -0.46457,-1.25345 -0.30679,-0.28663 -0.76259,-0.43038 -1.35864,-0.43038 -0.40321,0 -0.79765,0.0666 -1.17456,0.19985 -0.37691,0.13323 -0.69247,0.31731 -0.9642,0.55134 l -0.39444,-0.64162 c 0.33309,-0.27524 0.71876,-0.48648 1.17456,-0.63637 0.45581,-0.14901 0.9379,-0.22352 1.4463,-0.22352 0.84148,0 1.48135,0.20774 1.92839,0.62322 z m -0.97296,4.84552 c 0.35061,-0.22264 0.60481,-0.54346 0.78012,-0.96332 v -1.04133 h -2.01605 c -1.10444,0 -1.64789,0.37954 -1.64789,1.13863 0,0.37077 0.14024,0.66354 0.42074,0.87829 0.28926,0.21388 0.6837,0.32081 1.20086,0.32081 0.49086,0 0.9116,-0.11132 1.26222,-0.33308 z m 4.24246,-8.03701 h 0.86777 v 8.98806 h -0.86777 z"
             id="path2410"
             inkscape:connector-curvature="0"
             style="stroke-width:0.876671" />
          <path
             fill="#E74C3C"
             d="m 82.952504,136.38395 c 0.482097,0.27085 0.867775,0.65215 1.148268,1.14476 0.271728,0.49262 0.411975,1.05448 0.411975,1.68384 0,0.63812 -0.140247,1.20349 -0.411975,1.6961 -0.280493,0.49262 -0.657405,0.87391 -1.148268,1.14477 -0.482098,0.26997 -1.034319,0.40583 -1.639132,0.40583 -0.525925,0 -0.999257,-0.10693 -1.419996,-0.32169 -0.411975,-0.21387 -0.762591,-0.5268 -1.025553,-0.93877 v 3.54911 h -0.867776 v -8.7207 h 0.823949 v 1.25959 c 0.262962,-0.41987 0.604813,-0.74331 1.034318,-0.96946 0.429505,-0.22527 0.911603,-0.33834 1.455058,-0.33834 0.596048,0 1.148269,0.13498 1.639132,0.40496 z m -0.482098,5.00329 c 0.368147,-0.20598 0.657406,-0.49875 0.85901,-0.87829 0.21037,-0.37954 0.315555,-0.81168 0.315555,-1.2964 0,-0.48473 -0.105185,-0.91424 -0.315555,-1.29027 -0.201604,-0.37516 -0.490863,-0.66793 -0.85901,-0.87742 -0.368147,-0.21037 -0.771356,-0.31555 -1.218392,-0.31555 -0.455801,0 -0.867775,0.10518 -1.235923,0.31555 -0.359381,0.20949 -0.64864,0.50226 -0.850244,0.87742 -0.21037,0.37603 -0.315555,0.80554 -0.315555,1.29027 0,0.48472 0.105185,0.91686 0.315555,1.2964 0.201604,0.37954 0.490863,0.67231 0.850244,0.87829 0.368148,0.20599 0.780122,0.30855 1.235923,0.30855 0.447036,0 0.850245,-0.10256 1.218392,-0.30855 z m 5.793932,-5.0813 c 0.40321,-0.21826 0.90284,-0.32695 1.49889,-0.32695 v 0.83534 l -0.21037,-0.0123 c -0.67494,0 -1.20963,0.20599 -1.58654,0.61796 -0.38568,0.41198 -0.57852,0.98962 -0.57852,1.73205 v 3.2467 h -0.867773 v -6.37157 h 0.832713 v 1.24732 c 0.20161,-0.42776 0.50839,-0.7512 0.9116,-0.96858 z m 4.18987,5.7352 c -0.49963,-0.27874 -0.89407,-0.66441 -1.17457,-1.15703 -0.28925,-0.49262 -0.4295,-1.04922 -0.4295,-1.67156 0,-0.62147 0.14025,-1.17895 0.4295,-1.67157 0.2805,-0.49261 0.67494,-0.87566 1.17457,-1.1509 0.49086,-0.27435 1.05185,-0.41109 1.67419,-0.41109 0.62235,0 1.17457,0.13674 1.6742,0.41109 0.49962,0.27524 0.8853,0.65829 1.1658,1.1509 0.28049,0.49262 0.42074,1.0501 0.42074,1.67157 0,0.62234 -0.14025,1.17894 -0.42074,1.67156 -0.2805,0.49262 -0.66618,0.87829 -1.1658,1.15703 -0.49963,0.27874 -1.05185,0.41811 -1.6742,0.41811 -0.62234,0 -1.18333,-0.13937 -1.67419,-0.41811 z m 2.90135,-0.6539 c 0.35938,-0.20598 0.64864,-0.49875 0.85024,-0.87829 0.20161,-0.37954 0.30679,-0.81168 0.30679,-1.2964 0,-0.48473 -0.10518,-0.91599 -0.30679,-1.29553 -0.2016,-0.37954 -0.49086,-0.67231 -0.85024,-0.8783 -0.35938,-0.20598 -0.77136,-0.30941 -1.22716,-0.30941 -0.4558,0 -0.86777,0.10343 -1.22715,0.30941 -0.36815,0.20599 -0.64864,0.49876 -0.85901,0.8783 -0.21037,0.37954 -0.31556,0.8108 -0.31556,1.29553 0,0.48472 0.10519,0.91686 0.31556,1.2964 0.21037,0.37954 0.49086,0.67231 0.85901,0.87829 0.35938,0.20599 0.77135,0.30855 1.22715,0.30855 0.4558,0 0.86778,-0.10256 1.22716,-0.30855 z m 5.005052,0.66004 c -0.499632,-0.27436 -0.894072,-0.66004 -1.183332,-1.15703 -0.28049,-0.497 -0.42951,-1.05536 -0.42951,-1.6777 0,-0.62147 0.14902,-1.17895 0.42951,-1.67157 0.28926,-0.49261 0.6837,-0.87566 1.183332,-1.1509 0.49963,-0.27435 1.06938,-0.41109 1.70049,-0.41109 0.56098,0 1.05185,0.10693 1.49012,0.32081 0.43827,0.21388 0.78012,0.5268 1.03432,0.93878 l -0.64864,0.43564 c -0.21037,-0.31468 -0.4821,-0.55135 -0.80642,-0.70825 -0.32432,-0.15778 -0.6837,-0.23666 -1.06938,-0.23666 -0.46457,0 -0.87654,0.10343 -1.25346,0.30941 -0.36814,0.20599 -0.6574,0.49876 -0.867772,0.8783 -0.20161,0.37954 -0.30679,0.8108 -0.30679,1.29553 0,0.49261 0.10518,0.9265 0.30679,1.30254 0.210372,0.37516 0.499632,0.66617 0.867772,0.87215 0.37692,0.20599 0.78889,0.30855 1.25346,0.30855 0.38568,0 0.74506,-0.0763 1.06938,-0.23053 0.32432,-0.1534 0.59605,-0.38743 0.80642,-0.70211 l 0.64864,0.43564 c -0.2542,0.41197 -0.60482,0.7249 -1.04309,0.93877 -0.43827,0.21476 -0.92913,0.32169 -1.48135,0.32169 -0.63111,0 -1.20086,-0.13761 -1.70049,-0.41197 z m 11.64923,-2.56827 h -5.38196 c 0.0438,0.66267 0.30679,1.19736 0.77135,1.60495 0.46457,0.40759 1.05185,0.61183 1.76185,0.61183 0.39444,0 0.76259,-0.071 1.09568,-0.21213 0.33308,-0.14112 0.62234,-0.34886 0.86777,-0.62322 l 0.49086,0.55661 c -0.28049,0.33922 -0.63987,0.5978 -1.06938,0.77574 -0.4295,0.17706 -0.90283,0.26646 -1.41123,0.26646 -0.6574,0 -1.24468,-0.13937 -1.75308,-0.41811 -0.50839,-0.27874 -0.9116,-0.66441 -1.19209,-1.15703 -0.28926,-0.49262 -0.42951,-1.04922 -0.42951,-1.67156 0,-0.62147 0.13148,-1.17895 0.41198,-1.67157 0.27172,-0.49261 0.64864,-0.87566 1.12197,-1.1509 0.47333,-0.27435 1.00802,-0.41109 1.60407,-0.41109 0.59605,0 1.13074,0.13674 1.60407,0.41109 0.47333,0.27524 0.84148,0.65653 1.1132,1.14477 0.27173,0.48911 0.40321,1.04834 0.40321,1.6777 z m -4.67197,-2.17382 c -0.41197,0.39182 -0.6574,0.90196 -0.70999,1.5322 h 4.55801 c -0.0526,-0.63024 -0.28926,-1.14038 -0.71,-1.5322 -0.42074,-0.39181 -0.94666,-0.58728 -1.57777,-0.58728 -0.61358,0 -1.13951,0.19547 -1.56025,0.58728 z m 6.91591,4.92967 c -0.48209,-0.14901 -0.85024,-0.33747 -1.12197,-0.56362 l 0.39444,-0.67756 c 0.27173,0.20949 0.60482,0.38129 1.01679,0.51453 0.40321,0.13323 0.82395,0.19985 1.27099,0.19985 0.58728,0 1.01678,-0.0912 1.29728,-0.27261 0.28049,-0.18144 0.42074,-0.43827 0.42074,-0.7696 0,-0.23404 -0.0701,-0.41723 -0.2279,-0.55047 -0.15778,-0.13323 -0.35062,-0.23403 -0.58729,-0.30328 -0.23666,-0.0684 -0.55222,-0.13499 -0.9379,-0.19985 -0.52592,-0.0964 -0.94666,-0.19547 -1.26221,-0.29627 -0.31556,-0.10168 -0.58729,-0.27261 -0.81519,-0.51541 -0.2279,-0.24192 -0.33308,-0.57676 -0.33308,-1.00539 0,-0.53294 0.21913,-0.96858 0.66617,-1.3078 0.4558,-0.33922 1.07814,-0.50839 1.8758,-0.50839 0.41197,0 0.83271,0.0543 1.24468,0.16303 0.42074,0.10869 0.76259,0.25245 1.02556,0.43039 l -0.37692,0.68983 c -0.52592,-0.36289 -1.15703,-0.54433 -1.89332,-0.54433 -0.55223,0 -0.97297,0.0964 -1.25346,0.29014 -0.28049,0.19371 -0.42074,0.44791 -0.42074,0.76346 0,0.24193 0.0789,0.43564 0.23667,0.58115 0.15778,0.14551 0.35938,0.25244 0.59605,0.32081 0.23666,0.0692 0.56098,0.13937 0.97296,0.21213 0.51716,0.0973 0.92913,0.19371 1.23592,0.29101 0.30679,0.0964 0.57852,0.26208 0.79765,0.49612 0.21914,0.23404 0.32432,0.55748 0.32432,0.96945 0,0.55661 -0.2279,0.99926 -0.70123,1.32621 -0.46457,0.32695 -1.11321,0.49086 -1.94592,0.49086 -0.52593,0 -1.02556,-0.0754 -1.49889,-0.22439 z m 6.21468,0 c -0.4821,-0.14901 -0.85025,-0.33747 -1.12197,-0.56362 l 0.39444,-0.67756 c 0.26296,0.20949 0.60481,0.38129 1.00802,0.51453 0.41198,0.13323 0.83272,0.19985 1.27975,0.19985 0.57852,0 1.01679,-0.0912 1.29728,-0.27261 0.28049,-0.18144 0.42074,-0.43827 0.42074,-0.7696 0,-0.23404 -0.0789,-0.41723 -0.2279,-0.55047 -0.15778,-0.13323 -0.35062,-0.23403 -0.58728,-0.30328 -0.23667,-0.0684 -0.55222,-0.13499 -0.94667,-0.19985 -0.51716,-0.0964 -0.93789,-0.19547 -1.25345,-0.29627 -0.32432,-0.10168 -0.59605,-0.27261 -0.81518,-0.51541 -0.2279,-0.24192 -0.33309,-0.57676 -0.33309,-1.00539 0,-0.53294 0.21914,-0.96858 0.66617,-1.3078 0.44704,-0.33922 1.07815,-0.50839 1.8758,-0.50839 0.41197,0 0.83271,0.0543 1.24469,0.16303 0.41197,0.10869 0.75382,0.25245 1.02555,0.43039 l -0.37691,0.68983 c -0.53469,-0.36289 -1.1658,-0.54433 -1.89333,-0.54433 -0.56099,0 -0.97296,0.0964 -1.25345,0.29014 -0.2805,0.19371 -0.42074,0.44791 -0.42074,0.76346 0,0.24193 0.0789,0.43564 0.23666,0.58115 0.15778,0.14551 0.35062,0.25244 0.58729,0.32081 0.23666,0.0692 0.56975,0.13937 0.98172,0.21213 0.51716,0.0973 0.92914,0.19371 1.23592,0.29101 0.30679,0.0964 0.56976,0.26208 0.79766,0.49612 0.21913,0.23404 0.32432,0.55748 0.32432,0.96945 0,0.55661 -0.2279,0.99926 -0.70124,1.32621 -0.46456,0.32695 -1.12197,0.49086 -1.94592,0.49086 -0.52592,0 -1.02555,-0.0754 -1.49888,-0.22439 z"
             id="path2412"
             inkscape:connector-curvature="0"
             style="stroke-width:0.876671" />
          <g
             transform="translate(30.911528,98.647984)"
             id="g2426"
             style="stroke-width:1.00015">
            <path
               fill="#A8BAC1"
               d="m 149.94183,20.54349 c -0.63987,0.660036 -1.20962,1.054479 -4.04962,1.054479 h -10.47466 c 0.75383,2.149278 2.8137,3.525448 5.23295,3.525448 1.78814,0 3.37468,-0.83622 4.39147,-2.136131 0.0263,-0.03594 2.52444,0 5.22418,0 -0.32432,1.773243 -1.04308,3.024067 -1.87579,3.840126 -2.03358,1.985365 -4.71579,3.364164 -7.79245,3.364164 -5.88159,0 -10.64997,-4.735074 -10.64997,-10.576343 0,-5.841269 4.76838,-10.5754662 10.64997,-10.5754662 4.96998,0 9.00207,3.0792882 10.2117,7.6443132 0.35062,1.30517 -0.0438,3.010919 -0.86778,3.85941 z m -9.29133,-6.381218 c -2.41925,0 -4.47912,1.540959 -5.23295,3.690237 h 10.47466 c -0.75382,-2.149278 -2.81369,-3.690237 -5.24171,-3.690237 z"
               id="path2414"
               inkscape:connector-curvature="0"
               style="stroke-width:0.876671" />
            <polygon
               fill="#A8BAC1"
               points="152.29,0 152.29,34.444 146.46,34.444 146.46,0.013 "
               transform="matrix(-0.87654095,0,0,0.87654095,256.49415,0)"
               id="polygon2416"
               style="stroke-width:1.00015" />
            <path
               fill="#A8BAC1"
               d="M 99.65468,19.962344 V 0 l 5.01381,3.6716547e-4 V 10.651216 c 1.6216,-0.9992564 3.5237,-1.5768969 5.56604,-1.5768969 5.84653,0 10.58861,4.7271849 10.58861,10.5588119 0,5.831627 -4.74208,10.558813 -10.58861,10.558813 -5.73258,0 -10.404542,-4.550124 -10.57985,-10.229233 z m 10.55355,5.059394 c 2.99777,0 5.43456,-2.425389 5.43456,-5.417023 0,-2.991634 -2.43679,-5.416147 -5.43456,-5.416147 -2.99777,0 -5.42579,2.424513 -5.42579,5.416147 0,2.991634 2.42802,5.417023 5.42579,5.417023 z M 91.669392,9.0397668 h 5.057641 V 30.124959 h -5.057641 v -1.513786 c -1.630366,1.001886 -3.558756,1.580403 -5.618628,1.580403 -5.892984,0 -10.672762,-4.735074 -10.672762,-10.576343 0,-5.841269 4.779778,-10.5754662 10.672762,-10.5754662 2.059872,0 3.988262,0.5776405 5.618628,1.5795272 z M 86.085826,25.013849 c 3.024066,0 5.469616,-2.429771 5.469616,-5.425788 0,-2.996894 -2.44555,-5.425789 -5.469616,-5.425789 -3.032832,0 -5.481011,2.428895 -5.481011,5.425789 0,2.996017 2.448179,5.425788 5.481011,5.425788 z"
               id="path2418"
               inkscape:connector-curvature="0"
               style="stroke-width:0.876671" />
            <path
               fill="#1F3245"
               d="m 68.574291,9.0397668 h 5.150555 c 0.007,2.1659322 0.01052,3.2738802 0.01052,3.3238432 v 8.913545 c 0,4.934926 -4.039977,8.914421 -9.049409,8.914421 -2.545475,0 -4.848148,-0.994874 -6.463613,-2.666437 -1.656662,1.671563 -3.919014,2.666437 -6.463613,2.666437 -5.009431,0 -9.049408,-3.979495 -9.049408,-8.914421 V 9.0397668 h 5.171591 c -8.76e-4,2.1448952 -8.76e-4,3.2528432 -8.76e-4,3.3238432 v 8.913545 c 0,2.109834 1.737304,3.820842 3.878693,3.820842 2.140513,0 3.877818,-1.711008 3.877818,-3.820842 V 12.36361 c 0,-0.09028 0.01052,-1.199108 0.03243,-3.3238432 h 5.151431 v 5.4669862 l -0.01315,6.770402 c 0,2.109834 1.737304,3.820842 3.878693,3.820842 2.14139,0 3.877817,-1.711008 3.877817,-3.820842 V 12.36361 c 0,-0.04996 0.0035,-1.157911 0.01052,-3.3238432 z M 30.210723,30.191576 c -5.898244,0 -10.679775,-4.735074 -10.679775,-10.576343 0,-5.841269 4.781531,-10.5754662 10.679775,-10.5754662 5.898244,0 10.679775,4.7341972 10.679775,10.5754662 0,5.841269 -4.781531,10.576343 -10.679775,10.576343 z m 0,-5.140912 c 3.031079,0 5.4889,-2.433278 5.4889,-5.435431 0,-3.001276 -2.457821,-5.43543 -5.4889,-5.43543 -3.031078,0 -5.488899,2.434154 -5.488899,5.43543 0,3.002153 2.457821,5.435431 5.488899,5.435431 z"
               id="path2420"
               style="fill:#ffffff;stroke-width:0.876671"
               inkscape:connector-curvature="0" />
            <polygon
               fill="#1F3245"
               points="26.522,0.062 26.522,34.386 20.787,34.386 20.787,0.062 "
               transform="matrix(-0.87654095,0,0,0.87654095,36.095819,0)"
               id="polygon2422"
               style="fill:#ffffff;stroke-width:1.00015" />
            <path
               fill="#1F3245"
               d="M 0.17070084,11.612414 H 10.216737 V 16.64376 H 0.17070084 c -0.09440346,0 -0.23272162,-0.0114 -0.41521745,-0.03419 V 30.191576 H -5.2813839 l -3.5e-5,-0.100802 c -0.020264,0.01578 0,-0.08239 0,-0.165666 V 10.777947 C -5.4426411,2.9003863 -1.5861852,0.22176486 3.5935582,0.03067893 3.7224097,0.01057547 3.8547674,0 3.9897547,0 H 10.769799 V 5.031871 H 4.0625076 c -2.4251259,0.020511 -4.30705927,1.5032677 -4.30705927,5.604077 v 1.009775 c 0.13498731,-0.02191 0.27374374,-0.03331 0.41512979,-0.03331 z"
               id="path2424"
               style="fill:#ffffff;stroke-width:0.876671"
               inkscape:connector-curvature="0" />
          </g>
        </g>
        <path
           style="stroke-width:0.75142"
           inkscape:connector-curvature="0"
           id="path2428"
           d="M 43.304802,126.42544 70.920626,99.059284 h 4.355164 c 7.267423,0 13.156148,-5.83584 13.156148,-13.03527 V 81.706618 L 123.94939,46.514015 v 42.765984 c 0,5.401455 4.41938,9.779285 9.86617,9.779285 5.45057,0 9.86617,-4.37783 9.86617,-9.779285 V 24.209377 c 0.42683,-2.943608 -0.50238,-6.044727 -2.78761,-8.31032 -1.71109,-1.696739 -3.89812,-2.639539 -6.13425,-2.828024 -0.30973,-0.02908 -0.62702,-0.04382 -0.94431,-0.04382 H 66.727883 c -5.450566,0 -9.868056,4.376695 -9.868056,9.777024 0,5.397685 4.41749,9.775515 9.868056,9.775515 H 110.10578 L 74.588334,67.772359 h -4.574246 c -7.263645,0 -13.154261,5.835842 -13.154261,13.035278 v 4.532695 L 29.200563,112.74803 C 34.496262,96.811834 34.496262,95.334924 34.496262,89.279999 V 22.804241 c 0,-17.6386075 14.429837,-31.9366174 32.231621,-31.9366174 h 67.087677 c 17.80216,0 32.23124,14.2980099 32.23124,31.9366174 v 66.475758 c 0,17.639731 -14.42908,31.936611 -32.23124,31.936611 H 66.727883 c -5.756523,0 -7.171102,0 -23.423081,5.20883 z"
           fill="#E74C3C" />
      </g>
    </g>
  </g>
</svg>
