<?xml version="1.0" encoding="UTF-8" standalone="no"?>
<svg
   xmlns:dc="http://purl.org/dc/elements/1.1/"
   xmlns:cc="http://creativecommons.org/ns#"
   xmlns:rdf="http://www.w3.org/1999/02/22-rdf-syntax-ns#"
   xmlns:svg="http://www.w3.org/2000/svg"
   xmlns="http://www.w3.org/2000/svg"
   xmlns:sodipodi="http://sodipodi.sourceforge.net/DTD/sodipodi-0.dtd"
   xmlns:inkscape="http://www.inkscape.org/namespaces/inkscape"
   sodipodi:docname="vtt.svg"
   inkscape:version="1.0beta2 (2b71d25, 2019-12-03)"
   id="svg3043"
   version="1.1"
   viewBox="0 0 210 210"
   height="210mm"
   width="210mm">
  <defs
     id="defs3037" />
  <sodipodi:namedview
     inkscape:window-maximized="0"
     inkscape:window-y="23"
     inkscape:window-x="596"
     inkscape:window-height="854"
     inkscape:window-width="1600"
     inkscape:guide-bbox="true"
     showguides="true"
     showgrid="false"
     inkscape:document-rotation="0"
     inkscape:current-layer="text3608-6"
     inkscape:document-units="mm"
     inkscape:cy="582.68895"
     inkscape:cx="-346.26176"
     inkscape:zoom="0.22865364"
     inkscape:pageshadow="2"
     inkscape:pageopacity="0.0"
     borderopacity="1.0"
     bordercolor="#666666"
     pagecolor="#ffffff"
     id="base">
    <sodipodi:guide
       id="guide3628"
       orientation="1,0"
       position="38.951712,101.70568" />
    <sodipodi:guide
       id="guide3630"
       orientation="1,0"
       position="176.88575,135.50168" />
  </sodipodi:namedview>
  <metadata
     id="metadata3040">
    <rdf:RDF>
      <cc:Work
         rdf:about="">
        <dc:format>image/svg+xml</dc:format>
        <dc:type
           rdf:resource="http://purl.org/dc/dcmitype/StillImage" />
        <dc:title></dc:title>
      </cc:Work>
    </rdf:RDF>
  </metadata>
  <g
     id="layer1"
     inkscape:groupmode="layer"
     inkscape:label="Layer 1">
    <g
       transform="translate(-1.4311558,-7.5249185)"
       id="g3660">
      <g
         style="font-style:normal;font-weight:normal;font-size:15.969px;line-height:1.25;font-family:sans-serif;fill:#000000;fill-opacity:1;stroke:none;stroke-width:0.264583"
         id="text3608-6"
         aria-label="VIRTUAL TECHNOLOGIES">
        <g
           style="stroke-width:0.293391"
           transform="matrix(0.90181187,0,0,0.90181187,10.450275,11.04861)"
           id="g5026">
          <g
             aria-label="VTT"
             id="text3608"
             style="font-style:normal;font-weight:normal;font-size:106.591px;line-height:1.25;font-family:sans-serif;fill:#aad400;fill-opacity:1;stroke:none;stroke-width:0.293391">
            <path
               inkscape:connector-curvature="0"
               d="M 75.163399,61.899931 46.954257,139.397 H 33.21401 L 5.0048675,61.899931 H 16.038702 L 40.344365,130.0807 64.650029,61.899931 Z"
               style="font-style:normal;font-variant:normal;font-weight:normal;font-stretch:normal;font-family:Mshtakan;-inkscape-font-specification:Mshtakan;fill:#aad400;stroke-width:0.293391"
               id="path3662" />
            <path
               inkscape:connector-curvature="0"
               d="M 142.19915,71.060095 H 114.51047 V 139.397 H 104.20528 V 71.060095 H 76.516606 v -9.160164 h 65.682544 z"
               style="fill:#ffffff;stroke-width:0.293391"
               id="path3664" />
            <path
               inkscape:connector-curvature="0"
               d="M 207.98578,71.060095 H 180.29711 V 139.397 H 169.99192 V 71.060095 h -27.68868 v -9.160164 h 65.68254 z"
               style="fill:#ffffff;stroke-width:0.293391"
               id="path3666" />
          </g>
          <path
             inkscape:connector-curvature="0"
             d="m 15.014869,151.29791 -4.22617,11.61028 H 8.7301947 L 4.5040239,151.29791 h 1.653041 l 3.6413686,10.21455 3.6413685,-10.21455 z"
             style="font-style:normal;font-variant:normal;font-weight:normal;font-stretch:normal;font-family:Mshtakan;-inkscape-font-specification:Mshtakan;fill:#00ff00;stroke-width:0.293391"
             id="path3669" />
          <path
             inkscape:connector-curvature="0"
             d="M 20.870689,162.90819 H 16.28584 v -1.1852 h 1.520485 v -9.23988 H 16.28584 v -1.1852 h 4.584849 v 1.1852 h -1.520486 v 9.23988 h 1.520486 z"
             style="font-style:normal;font-variant:normal;font-weight:normal;font-stretch:normal;font-family:Mshtakan;-inkscape-font-specification:Mshtakan;fill:#00ff00;stroke-width:0.293391"
             id="path3671" />
          <path
             inkscape:connector-curvature="0"
             d="m 33.120347,162.90819 h -2.003922 l -3.883087,-4.61604 h -2.175464 v 4.61604 h -1.543878 v -11.61028 h 3.2515 q 1.052644,0 1.754407,0.14036 0.701763,0.13255 1.263173,0.48343 0.631586,0.39767 0.982468,1.00586 0.358678,0.6004 0.358678,1.52829 0,1.25537 -0.631586,2.10528 -0.631587,0.84212 -1.738812,1.27097 z m -3.610179,-8.34318 q 0,-0.49903 -0.179339,-0.8811 -0.171542,-0.38987 -0.577005,-0.65498 -0.335287,-0.22612 -0.795331,-0.3119 -0.460045,-0.0936 -1.083834,-0.0936 h -1.816785 v 4.38211 h 1.559472 q 0.732952,0 1.278768,-0.12475 0.545815,-0.13256 0.927886,-0.48344 0.350881,-0.32749 0.514626,-0.74855 0.171542,-0.42885 0.171542,-1.08383 z"
             style="font-style:normal;font-variant:normal;font-weight:normal;font-stretch:normal;font-family:Mshtakan;-inkscape-font-specification:Mshtakan;fill:#00ff00;stroke-width:0.293391"
             id="path3673" />
          <path
             inkscape:connector-curvature="0"
             d="m 42.898241,152.67025 h -4.148198 v 10.23794 h -1.543878 v -10.23794 h -4.148197 v -1.37234 h 9.840273 z"
             style="font-style:normal;font-variant:normal;font-weight:normal;font-stretch:normal;font-family:Mshtakan;-inkscape-font-specification:Mshtakan;fill:#00ff00;stroke-width:0.293391"
             id="path3675" />
          <path
             inkscape:connector-curvature="0"
             d="m 53.21415,158.24536 q 0,1.26318 -0.280705,2.20666 -0.272907,0.93568 -0.904494,1.55947 -0.600397,0.5926 -1.403525,0.86551 -0.803129,0.27291 -1.871367,0.27291 -1.091631,0 -1.902557,-0.28851 -0.810926,-0.2885 -1.364539,-0.84991 -0.631586,-0.63938 -0.912291,-1.54388 -0.272908,-0.90449 -0.272908,-2.22225 v -6.94745 h 1.543878 v 7.02543 q 0,0.94348 0.124758,1.48929 0.132555,0.54582 0.436652,0.99027 0.343084,0.50683 0.927887,0.76414 0.592599,0.25731 1.41912,0.25731 0.834318,0 1.41912,-0.24951 0.584802,-0.25731 0.935683,-0.77194 0.304098,-0.44445 0.428855,-1.01366 0.132556,-0.577 0.132556,-1.42691 v -7.06442 h 1.543877 z"
             style="font-style:normal;font-variant:normal;font-weight:normal;font-stretch:normal;font-family:Mshtakan;-inkscape-font-specification:Mshtakan;fill:#00ff00;stroke-width:0.293391"
             id="path3677" />
          <path
             inkscape:connector-curvature="0"
             d="m 65.323456,162.90819 h -1.645244 l -1.138415,-3.23591 h -5.021502 l -1.138415,3.23591 h -1.56727 l 4.226171,-11.61028 h 2.058504 z m -3.259298,-4.56146 -2.035112,-5.69987 -2.042909,5.69987 z"
             style="font-style:normal;font-variant:normal;font-weight:normal;font-stretch:normal;font-family:Mshtakan;-inkscape-font-specification:Mshtakan;fill:#00ff00;stroke-width:0.293391"
             id="path3679" />
          <path
             inkscape:connector-curvature="0"
             d="m 74.430777,162.90819 h -7.345116 v -11.61028 h 1.543877 v 10.23794 h 5.801239 z"
             style="font-style:normal;font-variant:normal;font-weight:normal;font-stretch:normal;font-family:Mshtakan;-inkscape-font-specification:Mshtakan;fill:#00ff00;stroke-width:0.293391"
             id="path3681" />
          <path
             inkscape:connector-curvature="0"
             d="m 89.869554,152.67025 h -4.148197 v 10.23794 h -1.543878 v -10.23794 h -4.148197 v -1.37234 h 9.840272 z"
             style="fill:#ffffff;stroke-width:0.293391"
             id="path3683" />
          <path
             inkscape:connector-curvature="0"
             d="m 99.093841,162.90819 h -7.649214 v -11.61028 h 7.649214 v 1.37234 h -6.105336 v 3.18132 h 6.105336 v 1.37234 h -6.105336 v 4.31194 h 6.105336 z"
             style="fill:#ffffff;stroke-width:0.293391"
             id="path3685" />
          <path
             inkscape:connector-curvature="0"
             d="m 110.51697,162.06607 q -0.42885,0.18714 -0.77973,0.35088 -0.34309,0.16375 -0.9045,0.34309 -0.47564,0.14815 -1.03705,0.24951 -0.55361,0.10917 -1.22418,0.10917 -1.26318,0 -2.30023,-0.35088 -1.02925,-0.35868 -1.79339,-1.11503 -0.74855,-0.74075 -1.1696,-1.87916 -0.42106,-1.14621 -0.42106,-2.6589 0,-1.43472 0.40546,-2.56534 0.40546,-1.13061 1.16961,-1.91035 0.74075,-0.75634 1.78559,-1.15401 1.05265,-0.39766 2.33141,-0.39766 0.93569,0 1.86357,0.22612 0.93569,0.22612 2.0741,0.79533 v 1.83238 h -0.11696 q -0.95907,-0.80313 -1.90255,-1.1696 -0.94349,-0.36648 -2.01952,-0.36648 -0.8811,0 -1.59066,0.2885 -0.70177,0.28071 -1.25538,0.8811 -0.53802,0.58481 -0.84211,1.4815 -0.2963,0.8889 -0.2963,2.05851 0,1.22418 0.32748,2.10529 0.33529,0.8811 0.85771,1.43471 0.54582,0.577 1.27097,0.85771 0.73296,0.27291 1.54388,0.27291 1.11503,0 2.0897,-0.38207 0.97467,-0.38207 1.82458,-1.14622 h 0.10916 z"
             style="fill:#ffffff;stroke-width:0.293391"
             id="path3687" />
          <path
             inkscape:connector-curvature="0"
             d="m 121.59703,162.90819 h -1.54388 v -5.68428 h -5.79344 v 5.68428 h -1.54388 v -11.61028 h 1.54388 v 4.55366 h 5.79344 v -4.55366 h 1.54388 z"
             style="fill:#ffffff;stroke-width:0.293391"
             id="path3689" />
          <path
             inkscape:connector-curvature="0"
             d="m 133.58158,162.90819 h -1.91036 l -5.50494,-10.38609 v 10.38609 h -1.44251 v -11.61028 h 2.39379 l 5.0215,9.4816 v -9.4816 h 1.44252 z"
             style="fill:#ffffff;stroke-width:0.293391"
             id="path3691" />
          <path
             inkscape:connector-curvature="0"
             d="m 145.3244,152.63126 q 0.70956,0.77974 1.08383,1.91036 0.38208,1.13061 0.38208,2.56533 0,1.43471 -0.38987,2.57313 -0.38207,1.13062 -1.07604,1.88696 -0.71736,0.78754 -1.69982,1.1852 -0.97467,0.39767 -2.23005,0.39767 -1.22419,0 -2.23005,-0.40547 -0.99806,-0.40546 -1.69982,-1.1774 -0.70176,-0.77194 -1.08383,-1.89476 -0.37428,-1.12282 -0.37428,-2.56533 0,-1.41912 0.37428,-2.54194 0.37427,-1.13062 1.09163,-1.93375 0.68616,-0.76414 1.69982,-1.1696 1.02146,-0.40546 2.22225,-0.40546 1.24758,0 2.23784,0.41326 0.99807,0.40546 1.69203,1.1618 z m -0.14035,4.47569 q 0,-2.26124 -1.01366,-3.48542 -1.01366,-1.23199 -2.76806,-1.23199 -1.77,0 -2.78366,1.23199 -1.00586,1.22418 -1.00586,3.48542 0,2.28463 1.02925,3.50102 1.02925,1.20859 2.76027,1.20859 1.73101,0 2.75247,-1.20859 1.02925,-1.21639 1.02925,-3.50102 z"
             style="fill:#ffffff;stroke-width:0.293391"
             id="path3693" />
          <path
             inkscape:connector-curvature="0"
             d="m 156.5838,162.90819 h -7.34512 v -11.61028 h 1.54388 v 10.23794 h 5.80124 z"
             style="fill:#ffffff;stroke-width:0.293391"
             id="path3695" />
          <path
             inkscape:connector-curvature="0"
             d="m 166.78274,152.63126 q 0.70957,0.77974 1.08384,1.91036 0.38207,1.13061 0.38207,2.56533 0,1.43471 -0.38987,2.57313 -0.38207,1.13062 -1.07604,1.88696 -0.71735,0.78754 -1.69982,1.1852 -0.97467,0.39767 -2.23005,0.39767 -1.22418,0 -2.23004,-0.40547 -0.99806,-0.40546 -1.69983,-1.1774 -0.70176,-0.77194 -1.08383,-1.89476 -0.37427,-1.12282 -0.37427,-2.56533 0,-1.41912 0.37427,-2.54194 0.37427,-1.13062 1.09163,-1.93375 0.68617,-0.76414 1.69983,-1.1696 1.02145,-0.40546 2.22224,-0.40546 1.24758,0 2.23785,0.41326 0.99806,0.40546 1.69202,1.1618 z m -0.14035,4.47569 q 0,-2.26124 -1.01365,-3.48542 -1.01366,-1.23199 -2.76807,-1.23199 -1.77,0 -2.78366,1.23199 -1.00586,1.22418 -1.00586,3.48542 0,2.28463 1.02925,3.50102 1.02926,1.20859 2.76027,1.20859 1.73102,0 2.75247,-1.20859 1.02925,-1.21639 1.02925,-3.50102 z"
             style="fill:#ffffff;stroke-width:0.293391"
             id="path3697" />
          <path
             inkscape:connector-curvature="0"
             d="m 180.38135,162.05048 q -0.95128,0.43665 -2.0819,0.76414 -1.12282,0.31969 -2.17546,0.31969 -1.35674,0 -2.48736,-0.37427 -1.13062,-0.37428 -1.92595,-1.12282 -0.80313,-0.75635 -1.23978,-1.88696 -0.43665,-1.13842 -0.43665,-2.65891 0,-2.78365 1.62185,-4.38991 1.62965,-1.61405 4.46789,-1.61405 0.99026,0 2.01951,0.24171 1.03705,0.23392 2.23005,0.80313 v 1.83238 h -0.14035 q -0.24172,-0.18713 -0.70176,-0.49123 -0.46005,-0.3041 -0.9045,-0.50683 -0.53802,-0.24172 -1.22418,-0.39767 -0.67838,-0.16374 -1.54388,-0.16374 -1.94934,0 -3.08776,1.25538 -1.13062,1.24757 -1.13062,3.38405 0,2.25344 1.1852,3.50881 1.1852,1.24758 3.22811,1.24758 0.74855,0 1.4893,-0.14815 0.74854,-0.14815 1.30995,-0.38207 v -2.84604 h -3.11114 v -1.35674 h 4.63943 z"
             style="fill:#ffffff;stroke-width:0.293391"
             id="path3699" />
          <path
             inkscape:connector-curvature="0"
             d="m 187.17286,162.90819 h -4.58485 v -1.1852 h 1.52048 v -9.23988 h -1.52048 v -1.1852 h 4.58485 v 1.1852 h -1.52049 v 9.23988 h 1.52049 z"
             style="fill:#ffffff;stroke-width:0.293391"
             id="path3701" />
          <path
             inkscape:connector-curvature="0"
             d="m 197.46538,162.90819 h -7.64922 v -11.61028 h 7.64922 v 1.37234 h -6.10534 v 3.18132 h 6.10534 v 1.37234 h -6.10534 v 4.31194 h 6.10534 z"
             style="fill:#ffffff;stroke-width:0.293391"
             id="path3703" />
          <path
             inkscape:connector-curvature="0"
             d="m 208.35829,159.59431 q 0,0.67837 -0.31969,1.34114 -0.3119,0.66278 -0.88111,1.12283 -0.62379,0.49903 -1.4581,0.77973 -0.82652,0.28071 -1.99613,0.28071 -1.25537,0 -2.26123,-0.23392 -0.99807,-0.23393 -2.03512,-0.69397 v -1.93375 h 0.10917 q 0.8811,0.73296 2.03511,1.13062 1.15401,0.39767 2.16767,0.39767 1.43471,0 2.23004,-0.53802 0.80313,-0.53802 0.80313,-1.43472 0,-0.77193 -0.38207,-1.13841 -0.37427,-0.36648 -1.14621,-0.56921 -0.5848,-0.15595 -1.27097,-0.25731 -0.67837,-0.10137 -1.44251,-0.25731 -1.54388,-0.32749 -2.29243,-1.11503 -0.74075,-0.79533 -0.74075,-2.0663 0,-1.4581 1.23198,-2.38599 1.23199,-0.93568 3.12675,-0.93568 1.22418,0 2.24564,0.23392 1.02145,0.23392 1.80899,0.577 v 1.82458 h -0.10917 q -0.66277,-0.56141 -1.74661,-0.92788 -1.07603,-0.37428 -2.20665,-0.37428 -1.23978,0 -1.99613,0.51463 -0.74854,0.51463 -0.74854,1.32555 0,0.72516 0.37427,1.13842 0.37427,0.41326 1.31776,0.63158 0.49903,0.10917 1.41912,0.26511 0.92008,0.15595 1.55947,0.3197 1.29436,0.34308 1.94934,1.03705 0.65498,0.69396 0.65498,1.94154 z"
             style="fill:#ffffff;stroke-width:0.293391"
             id="path3705" />
        </g>
      </g>
    </g>
  </g>
</svg>
