<?xml version="1.0" encoding="UTF-8" standalone="no"?>
<svg
   xmlns:dc="http://purl.org/dc/elements/1.1/"
   xmlns:cc="http://creativecommons.org/ns#"
   xmlns:rdf="http://www.w3.org/1999/02/22-rdf-syntax-ns#"
   xmlns:svg="http://www.w3.org/2000/svg"
   xmlns="http://www.w3.org/2000/svg"
   xmlns:sodipodi="http://sodipodi.sourceforge.net/DTD/sodipodi-0.dtd"
   xmlns:inkscape="http://www.inkscape.org/namespaces/inkscape"
   width="66.446259mm"
   height="7.7046423mm"
   viewBox="0 0 66.446259 7.7046423"
   version="1.1"
   id="svg5623"
   inkscape:version="1.0beta2 (2b71d25, 2019-12-03)"
   sodipodi:docname="logo.svg">
  <defs
     id="defs5617" />
  <sodipodi:namedview
     borderlayer="true"
     inkscape:showpageshadow="false"
     fit-margin-bottom="0"
     fit-margin-right="0"
     fit-margin-left="0"
     fit-margin-top="0"
     id="base"
     pagecolor="#ffffff"
     bordercolor="#666666"
     borderopacity="1.0"
     inkscape:pageopacity="0.0"
     inkscape:pageshadow="2"
     inkscape:zoom="0.84830806"
     inkscape:cx="143.10506"
     inkscape:cy="-7.2816295"
     inkscape:document-units="mm"
     inkscape:current-layer="text6188"
     inkscape:document-rotation="0"
     showgrid="false"
     inkscape:window-width="1600"
     inkscape:window-height="880"
     inkscape:window-x="0"
     inkscape:window-y="0"
     inkscape:window-maximized="0" />
  <metadata
     id="metadata5620">
    <rdf:RDF>
      <cc:Work
         rdf:about="">
        <dc:format>image/svg+xml</dc:format>
        <dc:type
           rdf:resource="http://purl.org/dc/dcmitype/StillImage" />
        <dc:title></dc:title>
      </cc:Work>
    </rdf:RDF>
  </metadata>
  <g
     transform="translate(-56.840056,-135.27619)"
     inkscape:label="Layer 1"
     inkscape:groupmode="layer"
     id="layer1">
    <g
       style="font-style:normal;font-weight:normal;font-size:10.5833px;line-height:1.25;font-family:sans-serif;fill:#000000;fill-opacity:1;stroke:none;stroke-width:0.264583"
       id="text6188"
       aria-label="Ricardo Mallols">
      <path
         id="path844"
         style="fill:#ffffff"
         d="m 57.65497,140.07043 v 2.80457 h -0.814914 v -7.32364 h 2.709325 q 1.164163,0 1.746244,0.53974 0.592665,0.53975 0.592665,1.68275 0,1.69333 -1.344079,2.12724 l 1.407579,2.97391 h -0.899581 l -1.322912,-2.80457 z m 1.904994,-0.71967 q 1.492245,0 1.492245,-1.53458 0,-1.54516 -1.502828,-1.54516 H 57.65497 v 3.07974 z" />
      <path
         id="path846"
         style="fill:#ffffff"
         d="m 63.213683,142.875 v -5.29165 h 0.793747 v 5.29165 z m 0,-6.48756 v -0.92075 h 0.793747 v 0.92075 z" />
      <path
         id="path848"
         style="fill:#ffffff"
         d="m 67.507857,137.47752 q 0.349249,0 1.18533,0.127 l 0.253999,0.0317 -0.03175,0.64558 q -0.846664,-0.0952 -1.248829,-0.0952 -0.899581,0 -1.227663,0.43391 -0.317499,0.42334 -0.317499,1.5875 0,1.15358 0.296333,1.60866 0.306915,0.45508 1.259412,0.45508 l 1.24883,-0.0952 0.03175,0.65617 q -0.984246,0.14816 -1.471078,0.14816 -1.238246,0 -1.714495,-0.63499 -0.465665,-0.635 -0.465665,-2.13783 0,-1.51341 0.507998,-2.11666 0.507999,-0.61383 1.693328,-0.61383 z" />
      <path
         id="path850"
         style="fill:#ffffff"
         d="m 73.874208,139.18143 v 2.70932 q 0.03175,0.39159 0.613831,0.46567 l -0.03175,0.62441 q -0.83608,0 -1.259412,-0.42333 -0.952497,0.42333 -1.904994,0.42333 -0.730248,0 -1.111247,-0.41275 -0.380998,-0.41274 -0.380998,-1.18533 0,-0.77258 0.391582,-1.13241 0.391582,-0.37041 1.227662,-0.45508 l 1.661578,-0.15875 v -0.45508 q 0,-0.53975 -0.232832,-0.77258 -0.232833,-0.23284 -0.634998,-0.23284 -0.846664,0 -1.756828,0.10584 l -0.328082,0.0318 -0.03175,-0.60325 q 1.164163,-0.23283 2.063743,-0.23283 0.899581,0 1.301746,0.41275 0.412749,0.41274 0.412749,1.29116 z m -3.259656,2.15899 q 0,0.97367 0.80433,0.97367 0.719665,0 1.418163,-0.24342 l 0.243415,-0.0847 v -1.74624 l -1.566328,0.14816 q -0.476248,0.0423 -0.687914,0.27517 -0.211666,0.23283 -0.211666,0.67733 z" />
      <path
         id="path852"
         style="fill:#ffffff"
         d="m 75.450623,142.875 v -5.29165 h 0.783164 v 0.71966 q 0.920747,-0.63499 1.936744,-0.83608 v 0.80433 q -0.444499,0.0847 -0.93133,0.26459 -0.476249,0.17991 -0.730248,0.3175 l -0.264583,0.13758 v 3.88407 z" />
      <path
         id="path854"
         style="fill:#ffffff"
         d="m 83.028597,135.27619 v 7.59881 h -0.783165 v -0.35983 q -0.814914,0.46566 -1.608661,0.46566 -0.423332,0 -0.740831,-0.10583 -0.317499,-0.10583 -0.592665,-0.381 -0.571498,-0.5715 -0.571498,-2.10608 0,-1.54516 0.507998,-2.22249 0.518582,-0.68791 1.703912,-0.68791 0.613831,0 1.301745,0.13758 v -2.33891 z m -3.111491,6.64631 q 0.169333,0.20109 0.359833,0.27517 0.190499,0.0741 0.486831,0.0741 0.306916,0 0.677332,-0.0952 0.380998,-0.10583 0.592664,-0.20108 l 0.211666,-0.0953 v -3.58774 q -0.677331,-0.127 -1.259412,-0.127 -0.804331,0 -1.12183,0.51858 -0.317499,0.508 -0.317499,1.5875 0,1.22766 0.370415,1.65099 z" />
      <path
         id="path856"
         style="fill:#ffffff"
         d="m 84.333484,140.21859 q 0,-1.44991 0.518582,-2.09549 0.518582,-0.64558 1.746244,-0.64558 1.238247,0 1.746245,0.64558 0.518582,0.64558 0.518582,2.09549 0,1.44991 -0.486832,2.10608 -0.486832,0.65616 -1.777995,0.65616 -1.291162,0 -1.777994,-0.65616 -0.486832,-0.65617 -0.486832,-2.10608 z m 0.814914,-0.0106 q 0,1.15358 0.275166,1.61924 0.285749,0.46567 1.174746,0.46567 0.899581,0 1.174747,-0.45508 0.275166,-0.46567 0.275166,-1.62983 0,-1.16416 -0.306916,-1.59808 -0.306916,-0.4445 -1.142997,-0.4445 -0.825497,0 -1.142996,0.4445 -0.306916,0.43392 -0.306916,1.59808 z" />
      <path
         id="path858"
         style="fill:#00aaef;fill-opacity:1"
         d="m 92.620703,142.875 v -7.32364 h 1.471079 l 2.074327,6.19123 2.074326,-6.19123 h 1.471079 V 142.875 H 98.8966 v -6.45581 h -0.148166 l -2.127244,6.19123 h -0.910163 l -2.127244,-6.19123 h -0.148166 v 6.45581 z" />
      <path
         id="path860"
         style="fill:#00aaef;fill-opacity:1"
         d="m 105.10735,139.18143 v 2.70932 q 0.0318,0.39159 0.61383,0.46567 l -0.0318,0.62441 q -0.83608,0 -1.25942,-0.42333 -0.95249,0.42333 -1.90499,0.42333 -0.73025,0 -1.11125,-0.41275 -0.38099,-0.41274 -0.38099,-1.18533 0,-0.77258 0.39158,-1.13241 0.39158,-0.37041 1.22766,-0.45508 l 1.66158,-0.15875 v -0.45508 q 0,-0.53975 -0.23283,-0.77258 -0.23284,-0.23284 -0.635,-0.23284 -0.84667,0 -1.75683,0.10584 l -0.32808,0.0318 -0.0318,-0.60325 q 1.16416,-0.23283 2.06374,-0.23283 0.89958,0 1.30175,0.41275 0.41275,0.41274 0.41275,1.29116 z m -3.25966,2.15899 q 0,0.97367 0.80433,0.97367 0.71966,0 1.41816,-0.24342 l 0.24342,-0.0847 v -1.74624 l -1.56633,0.14816 q -0.47625,0.0423 -0.68791,0.27517 -0.21167,0.23283 -0.21167,0.67733 z" />
      <path
         id="path862"
         style="fill:#00aaef;fill-opacity:1"
         d="m 106.74726,142.875 v -7.59881 h 0.79375 v 7.59881 z" />
      <path
         id="path864"
         style="fill:#00aaef;fill-opacity:1"
         d="m 109.18638,142.875 v -7.59881 h 0.79375 v 7.59881 z" />
      <path
         id="path866"
         style="fill:#00aaef;fill-opacity:1"
         d="m 111.32917,140.21859 q 0,-1.44991 0.51858,-2.09549 0.51858,-0.64558 1.74624,-0.64558 1.23825,0 1.74625,0.64558 0.51858,0.64558 0.51858,2.09549 0,1.44991 -0.48683,2.10608 -0.48683,0.65616 -1.778,0.65616 -1.29116,0 -1.77799,-0.65616 -0.48683,-0.65617 -0.48683,-2.10608 z m 0.81491,-0.0106 q 0,1.15358 0.27517,1.61924 0.28575,0.46567 1.17474,0.46567 0.89958,0 1.17475,-0.45508 0.27517,-0.46567 0.27517,-1.62983 0,-1.16416 -0.30692,-1.59808 -0.30692,-0.4445 -1.143,-0.4445 -0.82549,0 -1.14299,0.4445 -0.30692,0.43392 -0.30692,1.59808 z" />
      <path
         id="path868"
         style="fill:#00aaef;fill-opacity:1"
         d="m 117.20654,142.875 v -7.59881 h 0.79374 v 7.59881 z" />
      <path
         id="path870"
         style="fill:#00aaef;fill-opacity:1"
         d="m 121.24374,138.1866 q -1.15358,0 -1.15358,0.80433 0,0.37041 0.26458,0.52916 0.26458,0.14817 1.20649,0.3175 0.94192,0.15875 1.3335,0.45508 0.39158,0.29634 0.39158,1.11125 0,0.81492 -0.52916,1.19591 -0.51858,0.381 -1.524,0.381 -0.65616,0 -1.54516,-0.14816 l -0.3175,-0.0529 0.0423,-0.68791 q 1.2065,0.17991 1.82033,0.17991 0.61383,0 0.93133,-0.1905 0.32808,-0.20108 0.32808,-0.65616 0,-0.46567 -0.27516,-0.62442 -0.27517,-0.16933 -1.2065,-0.3175 -0.93133,-0.14816 -1.32291,-0.43391 -0.39158,-0.28575 -0.39158,-1.05833 0,-0.77258 0.53975,-1.143 0.55033,-0.37041 1.36524,-0.37041 0.64558,0 1.61925,0.14816 l 0.29633,0.0529 -0.0212,0.67733 q -1.17474,-0.16933 -1.85207,-0.16933 z" />
    </g>
  </g>
</svg>
