<?xml version="1.0" encoding="UTF-8" standalone="no"?>
<svg
   xmlns:dc="http://purl.org/dc/elements/1.1/"
   xmlns:cc="http://creativecommons.org/ns#"
   xmlns:rdf="http://www.w3.org/1999/02/22-rdf-syntax-ns#"
   xmlns:svg="http://www.w3.org/2000/svg"
   xmlns="http://www.w3.org/2000/svg"
   xmlns:sodipodi="http://sodipodi.sourceforge.net/DTD/sodipodi-0.dtd"
   xmlns:inkscape="http://www.inkscape.org/namespaces/inkscape"
   version="1.1"
   id="HSBC_MASTERBRAND_LOGO_WW_RGB"
   x="0px"
   y="0px"
   viewBox="0 0 170 82.147211"
   xml:space="preserve"
   sodipodi:docname="hsbc.svg"
   width="170"
   height="82.147209"
   inkscape:version="1.0beta2 (2b71d25, 2019-12-03)"><metadata
   id="metadata858"><rdf:RDF><cc:Work
       rdf:about=""><dc:format>image/svg+xml</dc:format><dc:type
         rdf:resource="http://purl.org/dc/dcmitype/StillImage" /><dc:title>HSBC_MASTERBRAND_LOGO_WW_RGB</dc:title></cc:Work></rdf:RDF></metadata><defs
   id="defs856" /><sodipodi:namedview
   showguides="false"
   pagecolor="#ffffff"
   bordercolor="#666666"
   inkscape:document-rotation="0"
   borderopacity="1"
   objecttolerance="10"
   gridtolerance="10"
   guidetolerance="10"
   inkscape:pageopacity="0"
   inkscape:pageshadow="2"
   inkscape:window-width="2560"
   inkscape:window-height="1054"
   id="namedview854"
   showgrid="false"
   fit-margin-top="0"
   fit-margin-left="0"
   fit-margin-right="0"
   fit-margin-bottom="0"
   inkscape:zoom="2.5426887"
   inkscape:cx="-98.157453"
   inkscape:cy="31.437931"
   inkscape:window-x="0"
   inkscape:window-y="4"
   inkscape:window-maximized="0"
   inkscape:current-layer="HSBC_MASTERBRAND_LOGO_WW_RGB" />

<title
   id="title835">HSBC_MASTERBRAND_LOGO_WW_RGB</title>







<g
   transform="matrix(0.66745004,0,0,0.66745004,28.233372,-11.812399)"
   id="g1437"
   style="stroke-width:1.19018"><g
     id="g871"
     transform="matrix(0.87428216,0,0,0.87428216,10.692305,17.697802)"
     style="stroke-width:1.19018"><rect
       y="0"
       x="42.599998"
       width="85"
       height="85"
       fill="#ffffff"
       id="rect833"
       style="stroke-width:1.19018" /><polygon
       points="127.6,0 127.6,85.1 170.1,42.6 "
       fill="#db0011"
       id="polygon837"
       style="stroke-width:1.19018" /><polygon
       points="127.6,0 42.6,0 85.1,42.6 "
       fill="#db0011"
       id="polygon839"
       style="stroke-width:1.19018" /><polygon
       points="42.6,85.1 42.6,0 0,42.6 "
       fill="#db0011"
       id="polygon841"
       style="stroke-width:1.19018" /><polygon
       points="42.6,85.1 127.6,85.1 85.1,42.6 "
       fill="#db0011"
       id="polygon843"
       style="stroke-width:1.19018" /></g><g
     transform="matrix(0.96572937,0,0,0.96572937,-156.47891,81.864498)"
     id="g864"
     style="fill:#ffffff;stroke-width:1.19018"><path
       inkscape:connector-curvature="0"
       d="M 207.4,45.1 H 192 v 15.2 h -7.7 V 24.7 h 7.7 v 14.6 h 15.4 V 24.7 h 7.7 v 35.6 h -7.7 z"
       id="path845"
       style="fill:#ffffff;stroke-width:1.19018" /><path
       inkscape:connector-curvature="0"
       d="m 233.7,61 c -7.7,0 -14,-3.1 -14.1,-11.6 h 7.7 c 0.1,3.8 2.3,6.1 6.5,6.1 3.1,0 6.7,-1.6 6.7,-5.1 0,-2.8 -2.4,-3.6 -6.4,-4.8 l -2.6,-0.7 c -5.6,-1.6 -11.2,-3.8 -11.2,-10.2 0,-7.9 7.4,-10.6 14.1,-10.6 6.9,0 12.9,2.4 13,10.3 h -7.7 c -0.3,-3.2 -2.2,-5.1 -5.8,-5.1 -2.9,0 -5.7,1.5 -5.7,4.7 0,2.6 2.4,3.4 7.4,5 l 3,0.9 c 6.1,1.9 10,4 10,10 -0.1,8 -7.9,11.1 -14.9,11.1 z"
       id="path847"
       style="fill:#ffffff;stroke-width:1.19018" /><path
       inkscape:connector-curvature="0"
       d="m 252.9,24.8 h 12.4 c 2.3,-0.1 4.7,0 7,0.4 4.3,1 7.6,3.8 7.6,8.6 0,4.6 -2.9,6.9 -7.1,8 4.8,0.9 8.4,3.3 8.4,8.6 0,8.1 -8,9.9 -14.2,9.9 h -14 z m 12.4,14.8 c 3.4,0 6.9,-0.7 6.9,-4.8 0,-3.7 -3.2,-4.7 -6.4,-4.7 h -5.4 v 9.5 z M 266,55 c 3.6,0 7.1,-0.8 7.1,-5.2 0,-4.4 -3,-5.2 -6.7,-5.2 h -6.1 V 55 Z"
       id="path849"
       style="fill:#ffffff;stroke-width:1.19018" /><path
       inkscape:connector-curvature="0"
       d="m 301.2,61 c -11.5,0 -16.6,-7.3 -16.6,-18.2 0,-10.9 5.7,-18.8 17,-18.8 7.1,0 14,3.2 14.2,11.2 h -8 c -0.4,-3.6 -2.8,-5.4 -6.2,-5.4 -7,0 -9.1,7.5 -9.1,13.2 0,5.7 2.1,12.3 8.8,12.3 3.5,0 6.1,-1.9 6.6,-5.5 h 8 C 315.1,58 308.6,61 301.2,61 Z"
       id="path851"
       style="fill:#ffffff;stroke-width:1.19018" /></g></g>
</svg>
