<?xml version="1.0" encoding="UTF-8" standalone="no"?>
<svg
   xmlns:dc="http://purl.org/dc/elements/1.1/"
   xmlns:cc="http://creativecommons.org/ns#"
   xmlns:rdf="http://www.w3.org/1999/02/22-rdf-syntax-ns#"
   xmlns:svg="http://www.w3.org/2000/svg"
   xmlns="http://www.w3.org/2000/svg"
   xmlns:sodipodi="http://sodipodi.sourceforge.net/DTD/sodipodi-0.dtd"
   xmlns:inkscape="http://www.inkscape.org/namespaces/inkscape"
   height="90.416046"
   width="119.5"
   enable-background="new 0 0 301 26.3"
   viewBox="0 0 119.5 90.416049"
   version="1.1"
   id="svg875"
   sodipodi:docname="partners-capital.svg"
   inkscape:version="1.0beta2 (2b71d25, 2019-12-03)">
  <metadata
     id="metadata881">
    <rdf:RDF>
      <cc:Work
         rdf:about="">
        <dc:format>image/svg+xml</dc:format>
        <dc:type
           rdf:resource="http://purl.org/dc/dcmitype/StillImage" />
        <dc:title></dc:title>
      </cc:Work>
    </rdf:RDF>
  </metadata>
  <defs
     id="defs879" />
  <sodipodi:namedview
     fit-margin-bottom="0"
     fit-margin-right="0"
     fit-margin-left="0"
     fit-margin-top="0"
     pagecolor="#ffffff"
     bordercolor="#666666"
     inkscape:document-rotation="0"
     borderopacity="1"
     objecttolerance="10"
     gridtolerance="10"
     guidetolerance="10"
     inkscape:pageopacity="0"
     inkscape:pageshadow="2"
     inkscape:window-width="2560"
     inkscape:window-height="1058"
     id="namedview877"
     showgrid="false"
     showguides="true"
     inkscape:guide-bbox="true"
     inkscape:zoom="2.4581349"
     inkscape:cx="16.665495"
     inkscape:cy="56.528245"
     inkscape:window-x="0"
     inkscape:window-y="0"
     inkscape:window-maximized="0"
     inkscape:current-layer="svg875">
    <sodipodi:guide
       position="-72.452831,19.920616"
       orientation="1,0"
       id="guide902" />
    <sodipodi:guide
       position="-72.452831,21.61276"
       orientation="0,-1"
       id="guide911" />
    <sodipodi:guide
       position="-72.119287,20.035237"
       orientation="0,-1"
       id="guide913" />
    <sodipodi:guide
       position="-72.254052,21.61276"
       orientation="1,0"
       id="guide915" />
  </sodipodi:namedview>
  <g
     style="fill:#ffffff"
     transform="matrix(0.61283907,0,0,0.61283907,23.132866,4)"
     id="g889">
    <g
       style="fill:#ffffff;fill-opacity:1"
       id="g863"
       fill="#0b3f6d"
       transform="translate(-72.694339,43.305948)">
      <g
         style="fill:#ffffff;fill-opacity:1"
         transform="translate(-0.50566105,-0.30999821)"
         id="g900">
        <path
           style="fill:#ffffff;fill-opacity:1"
           inkscape:connector-curvature="0"
           d="m 73.2,22.7 v -0.4 l 2.2,-1.1 V 6.6 L 73.2,5.5 V 5.1 h 7.5 c 2.1,0 3.8,0.4 5.1,1.1 1.3,0.8 1.9,2 1.9,3.6 0,1 -0.3,1.8 -1,2.6 -0.7,0.8 -1.6,1.4 -2.7,1.8 -1.1,0.4 -2.4,0.7 -3.9,0.7 h -1.9 v 6.3 l 2.5,1.1 v 0.4 z m 5,-16.1 v 6.9 h 2 c 1.4,0 2.5,-0.3 3.3,-1 C 84.3,11.9 84.7,11 84.7,10 84.7,8.8 84.3,7.9 83.5,7.3 82.7,6.7 81.5,6.5 80,6.5 h -1.8 z"
           id="path833" />
        <path
           style="fill:#ffffff;fill-opacity:1"
           inkscape:connector-curvature="0"
           d="m 87.2,22.7 v -0.4 l 1.4,-0.7 5.9,-13.9 h 1.4 l 5.9,13.9 1.6,0.8 v 0.4 h -6.2 v -0.4 l 1.9,-0.8 -1.7,-3.9 h -5.5 l -1.6,4 1.9,0.7 v 0.4 h -5 z m 5.2,-6.5 h 4.4 l -2.2,-5.3 z"
           id="path835" />
        <path
           style="fill:#ffffff;fill-opacity:1"
           inkscape:connector-curvature="0"
           d="m 104.7,22.7 v -0.4 l 1.9,-0.9 V 9.1 L 104.7,8.2 V 7.8 h 6.5 c 1.6,0 2.9,0.3 3.9,1 1,0.7 1.4,1.6 1.4,2.8 0,0.9 -0.3,1.6 -0.8,2.2 -0.5,0.6 -1.3,1.1 -2.3,1.5 l 4.1,6.3 1.8,0.8 v 0.4 h -4.2 L 110.9,16 h -1.6 v 5.5 l 1.8,0.9 v 0.4 h -6.4 z m 5.8,-13.6 h -1.3 v 5.5 h 1.4 c 1,0 1.7,-0.2 2.3,-0.7 0.6,-0.5 0.8,-1.2 0.8,-2 0,-0.9 -0.3,-1.6 -0.8,-2.1 -0.6,-0.5 -1.4,-0.7 -2.4,-0.7 z"
           id="path837" />
        <path
           style="fill:#ffffff;fill-opacity:1"
           inkscape:connector-curvature="0"
           d="m 122.3,22.7 v -0.4 l 2.4,-0.9 V 9.1 h -3.9 l -1.4,3.3 H 119 V 7.8 h 14.2 v 4.6 h -0.4 l -1.4,-3.3 h -3.9 v 12.3 l 2.4,0.9 v 0.4 z"
           id="path839" />
        <path
           style="fill:#ffffff;fill-opacity:1"
           inkscape:connector-curvature="0"
           d="m 134.7,22.7 v -0.4 l 1.9,-0.9 V 9.1 L 134.7,8.2 V 7.8 h 4 l 9,10.7 V 9.1 L 145.4,8.2 V 7.8 h 5.7 v 0.4 l -1.9,0.9 V 22.9 H 148 l -9.8,-11.6 v 10.1 l 2.4,1 v 0.4 h -5.9 z"
           id="path841" />
        <path
           style="fill:#ffffff;fill-opacity:1"
           inkscape:connector-curvature="0"
           d="m 152.8,22.7 v -0.4 l 1.9,-0.9 V 9.1 L 152.8,8.2 V 7.8 h 11.7 v 3.8 h -0.4 l -1.4,-2.5 h -5.4 v 5.2 h 3.9 l 0.9,-1.8 h 0.4 v 5 h -0.4 l -0.9,-1.8 h -3.9 v 5.7 h 5.9 l 1.5,-3 h 0.4 v 4.3 z"
           id="path843" />
        <path
           style="fill:#ffffff;fill-opacity:1"
           inkscape:connector-curvature="0"
           d="m 167.5,22.7 v -0.4 l 1.9,-0.9 V 9.1 L 167.5,8.2 V 7.8 h 6.5 c 1.6,0 2.9,0.3 3.9,1 1,0.7 1.4,1.6 1.4,2.8 0,0.9 -0.3,1.6 -0.8,2.2 -0.5,0.6 -1.3,1.1 -2.3,1.5 l 4.1,6.3 1.8,0.8 v 0.4 h -4.2 L 173.7,16 h -1.6 v 5.5 l 1.8,0.9 v 0.4 h -6.4 z M 173.3,9.1 H 172 v 5.5 h 1.4 c 1,0 1.7,-0.2 2.3,-0.7 0.5,-0.5 0.8,-1.2 0.8,-2 0,-0.9 -0.3,-1.6 -0.8,-2.1 -0.6,-0.5 -1.4,-0.7 -2.4,-0.7 z"
           id="path845" />
        <path
           style="fill:#ffffff;fill-opacity:1"
           inkscape:connector-curvature="0"
           d="m 187.2,23 c -1,0 -1.8,-0.1 -2.5,-0.3 -0.7,-0.2 -1.4,-0.5 -2.1,-0.8 l -0.2,-3.6 h 0.4 l 1.4,2.5 c 0.5,0.4 1,0.6 1.5,0.8 0.5,0.1 1.1,0.2 1.6,0.2 1,0 1.7,-0.2 2.3,-0.6 0.6,-0.4 0.8,-1 0.8,-1.8 0,-0.6 -0.2,-1.1 -0.5,-1.4 -0.3,-0.3 -0.8,-0.7 -1.4,-0.9 -0.6,-0.3 -1.4,-0.7 -2.4,-1.1 -1.1,-0.5 -1.9,-1.1 -2.4,-1.7 -0.5,-0.6 -0.7,-1.4 -0.7,-2.3 0,-0.8 0.2,-1.5 0.7,-2.2 0.5,-0.7 1.1,-1.2 1.8,-1.6 0.7,-0.4 1.6,-0.6 2.5,-0.6 0.8,0 1.5,0.1 2.1,0.3 0.6,0.2 1.3,0.4 1.8,0.7 l 0.2,3.5 h -0.4 L 190.5,9.8 C 189.8,9.2 189,8.9 188,8.9 c -0.9,0 -1.5,0.2 -2,0.6 -0.5,0.4 -0.7,1 -0.7,1.7 0,0.5 0.1,0.8 0.3,1.2 0.2,0.3 0.6,0.6 1.1,0.9 0.5,0.3 1.1,0.6 1.9,1 1,0.5 1.8,0.9 2.4,1.3 0.6,0.4 1,0.9 1.3,1.4 0.3,0.5 0.4,1.1 0.4,1.9 0,0.8 -0.2,1.6 -0.7,2.2 -0.5,0.6 -1.1,1.1 -1.9,1.5 -0.9,0.2 -1.8,0.4 -2.9,0.4 z"
           id="path847" />
      </g>
      <g
         style="fill:#ffffff;fill-opacity:1"
         transform="translate(9.3412651,0.54123228)"
         id="g890">
        <path
           style="fill:#ffffff;fill-opacity:1"
           d="m 81.800943,46.568868 c -1.8,0 -3.4,-0.4 -4.7,-1.1 -1.3,-0.7 -2.4,-1.8 -3.1,-3.1 -0.7,-1.3 -1.1,-2.8 -1.1,-4.4 0,-1.3 0.2,-2.5 0.7,-3.6 0.5,-1.1 1.2,-2.2 2,-3 0.9,-0.9 1.9,-1.6 3,-2.1 1.1,-0.5 2.3,-0.8 3.6,-0.8 0.9,0 1.7,0.1 2.3,0.2 0.6,0.1 1.2,0.3 1.7,0.5 0.5,0.2 1,0.4 1.5,0.7 l 0.2,4.7 h -0.5 l -1.8,-3.5 c -0.6,-0.4 -1.2,-0.7 -1.6,-0.9 -0.5,-0.2 -1,-0.3 -1.6,-0.3 -1.2,0 -2.3,0.3 -3.3,1 -1,0.6 -1.7,1.5 -2.3,2.7 -0.6,1.1 -0.8,2.4 -0.8,3.9 0,1.7 0.3,3.1 0.8,4.3 0.5,1.2 1.3,2.1 2.2,2.7 0.9,0.6 1.9,0.9 3.1,0.9 0.9,0 1.7,-0.1 2.3,-0.4 0.6,-0.2 1.2,-0.5 1.7,-0.9 l 1.8,-3 h 0.5 l -0.3,4.3 c -0.8,0.4 -1.6,0.7 -2.5,1 -1.3,0 -2.4,0.2 -3.8,0.2 z"
           id="path849"
           inkscape:connector-curvature="0" />
        <path
           style="fill:#ffffff;fill-opacity:1"
           d="m 89.600943,46.268868 v -0.4 l 1.4,-0.7 5.9,-13.9 h 1.4 l 5.899997,13.9 1.6,0.8 v 0.4 h -6.299997 v -0.4 l 1.899997,-0.8 -1.699997,-3.9 h -5.5 l -1.6,4 1.9,0.7 v 0.4 h -4.9 z m 5.2,-6.5 h 4.4 l -2.2,-5.3 z"
           id="path851"
           inkscape:connector-curvature="0" />
        <path
           style="fill:#ffffff;fill-opacity:1"
           d="m 107.10094,46.268868 v -0.4 l 1.9,-0.9 v -12.3 l -1.9,-0.9 v -0.4 h 6.4 c 2,0 3.5,0.3 4.5,1 1,0.7 1.5,1.7 1.5,3.2 0,0.9 -0.3,1.7 -0.8,2.3 -0.6,0.7 -1.3,1.2 -2.3,1.5 -1,0.3 -2.1,0.5 -3.3,0.5 h -1.5 v 5.1 l 2.2,0.9 v 0.4 z m 4.6,-13.6 v 5.9 h 1.3 c 1.2,0 2.1,-0.3 2.8,-0.8 0.7,-0.5 1,-1.3 1,-2.2 0,-1 -0.4,-1.8 -1.1,-2.3 -0.7,-0.5 -1.7,-0.7 -3,-0.7 h -1 z"
           id="path853"
           inkscape:connector-curvature="0" />
        <path
           style="fill:#ffffff;fill-opacity:1"
           d="m 121.50094,46.268868 v -0.4 l 1.8,-0.9 v -12.3 l -1.8,-0.9 v -0.4 h 6.3 v 0.4 l -1.8,0.9 v 12.3 l 1.8,0.9 v 0.4 z"
           id="path855"
           inkscape:connector-curvature="0" />
        <path
           style="fill:#ffffff;fill-opacity:1"
           d="m 132.90094,46.268868 v -0.4 l 2.4,-0.9 v -12.3 h -3.9 l -1.4,3.3 h -0.5 v -4.6 h 14.2 v 4.6 h -0.4 l -1.4,-3.3 h -3.9 v 12.3 l 2.4,0.9 v 0.4 z"
           id="path857"
           inkscape:connector-curvature="0" />
        <path
           style="fill:#ffffff;fill-opacity:1"
           d="m 143.80094,46.268868 v -0.4 l 1.4,-0.7 5.9,-13.9 h 1.4 l 5.9,13.9 1.6,0.8 v 0.4 h -6.2 v -0.4 l 1.9,-0.8 -1.7,-3.9 h -5.5 l -1.6,4 1.9,0.7 v 0.4 h -5 z m 5.2,-6.5 h 4.4 l -2.2,-5.3 z"
           id="path859"
           inkscape:connector-curvature="0" />
        <path
           style="fill:#ffffff;fill-opacity:1"
           d="m 161.20094,46.268868 v -0.4 l 1.9,-0.9 v -12.3 l -1.9,-0.9 v -0.4 h 6.7 v 0.4 l -2.2,0.9 v 12.3 h 5.6 l 1.7,-3.9 h 0.4 v 5.3 h -12.2 z"
           id="path861"
           inkscape:connector-curvature="0" />
      </g>
    </g>
    <g
       style="fill:#ffffff;fill-opacity:1"
       transform="matrix(1.6082324,0,0,1.6082324,11.583544,-0.2776003)"
       id="g909">
      <path
         style="fill:#ffffff;fill-opacity:1"
         inkscape:connector-curvature="0"
         d="m 25.7,5 c -1.5,0.6 -2.2,1.7 -2.3,3.2 0,0.3 -0.3,0.6 -0.5,0.8 -0.8,0.8 -1.5,1.6 -2.3,2.3 0,0.1 0.1,0.1 0.1,0.2 h 1.5 c -0.2,0.4 -0.2,0.7 -0.4,1 -0.7,1.2 -1.6,2.4 -2.3,3.6 -1.2,2.1 -1.3,3.2 -1.1,5.5 -1.4,0 -1.9,-0.6 -2,-2.4 -0.8,0.1 -1,0.3 -1.8,1.7 -0.8,-0.3 -1.1,-1 -1.1,-1.7 0,-1.1 0.1,-2.2 0.2,-3.4 -0.8,0 -1.4,0.6 -2.1,1.1 -0.7,-1.6 -0.9,-3.3 -1,-5.1 -1.1,1 -1.8,2.1 -1.9,3.6 -0.1,2.9 1.1,5.3 3.5,7 0.1,0 0.1,0.1 0.2,0.2 0,0 0,0 0.1,0.1 C 11.2,23.8 9.7,24.1 8.1,24 4.2,23.7 1,20.9 0.3,17 0.2,16.5 0.2,15.9 0.4,15.4 2.2,10.3 4.8,5.8 9.1,2.4 c 2.5,-2 5.3,-2.5 8.3,-2.1 3.3,0.4 6,1.8 8,4.5 0.2,-0.1 0.2,0 0.3,0.2 z m -4.3,2 c -0.5,1.4 -1.2,2 -2.3,1.9 -0.9,0 -1.8,-0.7 -1.9,-1.6 -0.1,-0.5 0,-1.2 0.3,-1.6 0.3,-0.4 0.8,-0.7 1.2,-1 -1.2,-0.4 -2.8,0 -3.8,1 -0.8,0.7 -1.5,2.4 -1.1,3.5 0.5,-1 1.2,-1.3 2.3,-0.9 0.4,0.1 0.8,0.3 1.2,0.5 C 18.9,9.7 20.4,9.3 22,8.6 21.8,8 21.6,7.6 21.4,7 Z M 19.9,7.9 C 20.6,7.6 20.7,7.3 20.4,6.7 20.2,7.1 20,7.5 19.9,7.9 Z"
         fill="#113f6c"
         id="path865" />
      <path
         style="fill:#ffffff;fill-opacity:1"
         inkscape:connector-curvature="0"
         d="m 50.3,19.4 c 1.9,-0.2 4.7,-1.4 7.6,-3.1 -0.4,0.5 -0.8,1.1 -1.2,1.7 2.3,-0.9 4.3,-2.1 6.1,-3.7 -0.2,1.1 -2.9,3.6 -5.2,5 -2.1,1.3 -4.4,2.1 -6.8,2.6 v 0.2 c 2.2,-0.4 4.3,-0.8 6.6,-1.1 -2.2,2.5 -5.3,2.7 -8.2,3.2 h 3.7 c 0,0.1 0.1,0.1 0.1,0.2 -0.4,0.3 -0.7,0.6 -1.1,0.9 -1,0.6 -2.1,0.9 -3.2,0.9 -8.2,0 -16.3,0 -24.5,0 -0.1,0 -0.2,0 -0.4,0 0.6,-2.2 0.2,-4.4 -0.2,-6.5 0,0 0,0 0,-0.1 -0.2,-1.7 -0.2,-1.9 1.4,-2.6 1.1,-0.5 2.4,-0.8 3.6,-1.1 1.8,-0.5 3.5,-0.9 5.3,-1.4 -0.2,0.3 -0.5,0.6 -0.8,0.9 0.9,0.2 2.7,-0.4 5,-1.8 -0.3,1.1 -1.7,1.8 -5.2,2.7 1.2,0.2 2.3,0.3 3.4,0.5 2.2,0.4 4.4,0.8 6.6,1.2 2.5,0.5 4.7,-0.1 6.8,-1.3 0.2,-0.1 0.4,-0.2 0.5,-0.3 h 0.2 c -0.2,0.5 -0.4,0.9 -0.6,1.3 2.1,-0.7 3.9,-1.9 5.7,-3.2 -1.1,2.1 -2.8,3.8 -5.2,4.9 z"
         fill="#113f6c"
         id="path867" />
      <path
         style="fill:#ffffff;fill-opacity:1"
         inkscape:connector-curvature="0"
         d="m 27.5,12.1 c -0.4,0.1 -0.9,0.2 -1.3,0.2 -0.7,0.1 -1.3,0.3 -1.8,1 -1.5,2.4 -1.8,4.9 -1.2,7.6 0.3,1.4 0.4,2.8 0.2,4.2 0,0.3 -0.1,0.5 -0.2,0.8 -2.8,-1.8 -3.8,-5.2 -2.6,-8.5 0.9,-2.4 2.5,-4.3 4.4,-6 0.6,-0.6 2.3,-0.1 2.5,0.7 z"
         fill="#113f6c"
         id="path869" />
      <path
         style="fill:#ffffff;fill-opacity:1"
         inkscape:connector-curvature="0"
         d="m 0,18.2 c 0.5,1 1,2.1 1.6,3 1.7,2.5 4.1,3.9 7.3,3.9 1.2,0 2.3,-0.4 3.5,-0.5 3.1,-0.4 6.1,-0.2 9,0.7 0.4,0.1 0.7,0.3 1.1,0.4 0.1,0 0.2,0.1 0.4,0.2 -1.5,-0.2 -2.9,-0.3 -4.3,-0.4 -2.9,-0.3 -5.8,0 -8.7,0.6 -2.2,0.4 -4.3,0.4 -6.3,-1 C 1.5,23.6 0.2,21.6 0,19 0,18.7 0,18.5 0,18.2 Z"
         fill="#113f6c"
         id="path871" />
      <path
         style="fill:#ffffff;fill-opacity:1"
         inkscape:connector-curvature="0"
         d="m 23.9,10.7 c 0,-0.9 0,-0.9 1.4,-2.1 C 24.7,8.4 24.3,8 24.5,7.4 24.6,7.1 25,6.9 25.3,6.8 c 0.6,-0.1 0.8,0.3 1,0.9 0.2,-0.5 0.4,-0.9 0.7,-1.5 1.3,0.8 2.7,1.6 3.1,3.3 0.4,1.5 0.4,3.1 -0.8,4.4 -0.1,-0.2 -0.1,-0.4 -0.2,-0.5 -0.3,-0.6 -0.5,-1.3 -0.8,-1.8 -0.4,-0.7 -1.1,-1 -1.9,-1 -0.8,0.1 -1.7,0.1 -2.5,0.1 z m 5.6,2.3 c 0.9,-1.6 0.5,-4.3 -1.8,-5.6 1.8,1.4 2.2,3.3 1.8,5.6 z"
         fill="#113f6c"
         id="path873" />
    </g>
  </g>
</svg>
