<?xml version="1.0" encoding="UTF-8" standalone="no"?>
<svg
   xmlns:dc="http://purl.org/dc/elements/1.1/"
   xmlns:cc="http://creativecommons.org/ns#"
   xmlns:rdf="http://www.w3.org/1999/02/22-rdf-syntax-ns#"
   xmlns:svg="http://www.w3.org/2000/svg"
   xmlns="http://www.w3.org/2000/svg"
   xmlns:sodipodi="http://sodipodi.sourceforge.net/DTD/sodipodi-0.dtd"
   xmlns:inkscape="http://www.inkscape.org/namespaces/inkscape"
   xml:space="preserve"
   style="enable-background:new 0 0 24 24;"
   viewBox="0 0 24 24"
   y="0px"
   x="0px"
   sodipodi:docname="github.svg"
   inkscape:version="1.0beta2 (2b71d25, 2019-12-03)"
   id="svg8901"
   version="1.1"><metadata
   id="metadata1572"><rdf:RDF><cc:Work
       rdf:about=""><dc:format>image/svg+xml</dc:format><dc:type
         rdf:resource="http://purl.org/dc/dcmitype/StillImage" /></cc:Work></rdf:RDF></metadata><defs
   id="defs1570" />
<style
   id="style1565"
   type="text/css">
	.st0{fill:#FFFFFF;}
</style>
<sodipodi:namedview
   inkscape:document-rotation="0"
   showgrid="false"
   pagecolor="#ffffff"
   objecttolerance="10"
   inkscape:zoom="9.8333333"
   inkscape:window-y="26"
   inkscape:window-x="0"
   inkscape:window-width="2560"
   inkscape:window-maximized="0"
   inkscape:window-height="1054"
   inkscape:pageshadow="2"
   inkscape:pageopacity="0"
   inkscape:cy="12"
   inkscape:cx="-7.5762713"
   inkscape:current-layer="svg8901"
   id="namedview8905"
   guidetolerance="10"
   gridtolerance="10"
   borderopacity="1"
   bordercolor="#666666">
	</sodipodi:namedview>
<path
   style="fill:#8be9fd;fill-opacity:1"
   d="M12,0.6C5.6,0.6,0.3,5.9,0.3,12.3c0,5.1,3.3,9.5,8,11.1c0.6,0.1,0.8-0.3,0.8-0.6v-2.2  c-3.2,0.7-3.9-1.4-3.9-1.4c-0.5-1.3-1.3-1.7-1.3-1.7C2.8,16.8,4,16.8,4,16.8C5.1,16.9,5.7,18,5.7,18c1,1.8,2.7,1.3,3.4,1  c0.1-0.8,0.4-1.3,0.7-1.6c-2.6-0.3-5.3-1.3-5.3-5.8c0-1.3,0.5-2.3,1.2-3.1C5.6,8.3,5.2,7.1,5.9,5.5c0,0,1-0.3,3.2,1.2  C10,6.4,11,6.3,12,6.3c1,0,2,0.1,2.9,0.4c2.2-1.5,3.2-1.2,3.2-1.2c0.6,1.6,0.2,2.8,0.1,3.1c0.7,0.8,1.2,1.9,1.2,3.1  c0,4.5-2.7,5.5-5.3,5.7c0.4,0.4,0.8,1.1,0.8,2.2v3.2c0,0.3,0.2,0.7,0.8,0.6c4.6-1.5,8-5.9,8-11.1C23.7,5.9,18.4,0.6,12,0.6z"
   class="st0"
   id="path8903" />
</svg>
