<?xml version="1.0" encoding="UTF-8" standalone="no"?>
<svg
   xmlns:dc="http://purl.org/dc/elements/1.1/"
   xmlns:cc="http://creativecommons.org/ns#"
   xmlns:rdf="http://www.w3.org/1999/02/22-rdf-syntax-ns#"
   xmlns:svg="http://www.w3.org/2000/svg"
   xmlns="http://www.w3.org/2000/svg"
   xmlns:sodipodi="http://sodipodi.sourceforge.net/DTD/sodipodi-0.dtd"
   xmlns:inkscape="http://www.inkscape.org/namespaces/inkscape"
   inkscape:version="1.0beta2 (2b71d25, 2019-12-03)"
   sodipodi:docname="meetup.svg"
   xml:space="preserve"
   style="enable-background:new 0 0 512 512;"
   viewBox="0 0 512 512"
   y="0px"
   x="0px"
   id="Layer_1"
   version="1.1"><metadata
   id="metadata922"><rdf:RDF><cc:Work
       rdf:about=""><dc:format>image/svg+xml</dc:format><dc:type
         rdf:resource="http://purl.org/dc/dcmitype/StillImage" /></cc:Work></rdf:RDF></metadata><defs
   id="defs920" /><sodipodi:namedview
   inkscape:current-layer="g915"
   inkscape:window-maximized="0"
   inkscape:window-y="0"
   inkscape:window-x="0"
   inkscape:cy="256"
   inkscape:cx="256"
   inkscape:zoom="1.3125"
   showgrid="false"
   id="namedview918"
   inkscape:window-height="1080"
   inkscape:window-width="2560"
   inkscape:pageshadow="2"
   inkscape:pageopacity="0"
   guidetolerance="10"
   gridtolerance="10"
   objecttolerance="10"
   borderopacity="1"
   inkscape:document-rotation="0"
   bordercolor="#666666"
   pagecolor="#ffffff" />
<style
   id="style911"
   type="text/css">
	.st0{fill:#FFFFFF;}
</style>
<g
   id="g915">
	<path
   style="fill:#8be9fd;fill-opacity:1"
   id="path913"
   d="M505.8,328c0,56.8-40.8,105.7-96.3,115.3c-6.9,1.3-14.1,1.9-21.1,1.9c-2.4,0-3.2,0.8-4,3.2   c-10.9,31.8-33.4,50.7-66.7,55.8c-22.1,3.2-42.2-2.9-59.8-16.5c-2.4-1.9-4-2.1-6.4,0c-20.5,14.7-43.8,21.1-68.8,19.7   c-49.1-2.9-90.7-40.6-98.5-89.1c-0.5-3.2-1.1-6.7-1.1-10.1c0-2.9-1.1-4-3.7-4.5c-14.9-2.9-28.6-9.1-40.3-18.4   c-21.9-17.1-35-39.5-38.2-67.2c-4-32,5.9-59.5,28-82.5c1.9-1.9,1.9-3.2,0.8-5.3c-8.5-14.9-12.8-31.2-12-48.3   c1.6-43,31.5-78.5,73.1-87.3c4.8-1.1,7.2-2.9,9.3-7.5c20.5-44.3,55-71.3,102.7-80.1c33.6-6.1,65.1,0.5,94.7,17.6   c2.4,1.3,4.5,1.6,7.2,0.8c46.7-13.6,88.1-3.7,123,29.6c20.8,19.7,32,44.8,35.5,73.1c0.8,6.1,1.1,12.5,0.5,18.7   c-0.3,2.4,0.5,3.2,2.9,4.3c21.1,7.7,35.5,22.4,41.9,43.8c8,26.7,1.3,50.2-18.7,69.6c-1.6,1.6-1.3,2.7-0.5,4.5   C500.2,287.2,505.8,307,505.8,328z M297.4,318.7c0,24,15.5,45.6,37.4,52.8c10.9,3.7,22.4,5.3,33.9,5.9c8.3,0.5,16.5-0.3,24-4   c6.1-2.9,8.8-8,8.5-14.4c-0.3-6.7-3.2-11.5-9.6-14.1c-2.1-0.8-4.5-1.6-6.7-2.1c-6.9-1.3-13.9-2.4-20.8-3.7   c-11.5-2.4-16.3-8.3-16.3-20c0-10.1,2.7-20,5.9-29.6c5.6-17.6,13.6-34.2,21.1-51c7.2-16.3,14.7-32.3,19.7-49.6   c2.9-9.3,4-18.7,1.6-28.6c-4-14.7-12.8-24.6-28-27.5c-13.9-2.7-27.8-2.9-40.6,5.3c-4.3,2.7-8.3,2.1-11.7-1.1   c-2.9-2.4-5.3-5.1-8-7.5c-12.8-11.7-29.9-12.5-43.8-1.6c-5.6,4.5-10.1,9.9-16.3,13.6c-5.3,3.5-10.9,4.3-16.8,1.3   c-5.6-2.9-11.7-5.6-17.6-8.5c-5.9-2.7-11.7-6.1-18.4-6.7c-21.3-1.9-43.5,10.9-52.8,30.2c-4,8.5-7.5,17.3-10.7,26.2   c-14.9,41.1-27,83-39.5,124.9c-5.6,18.7,1.1,37.1,16.8,47.2c12.3,7.7,25.9,9.9,40,5.6c11.5-3.5,17.6-12.5,21.9-22.7   c14.4-34.2,27.5-68.6,41.4-103c3.7-9.3,7.5-18.9,11.5-28.3s15.7-12.5,22.7-6.4c4.3,3.7,5.3,9.1,4.8,14.4   c-0.5,5.9-2.7,11.2-4.8,16.5c-9.1,22.7-18.1,45.1-27.2,67.8c-1.9,4.5-3.7,9.1-4.5,14.1c-1.3,8.5,2.1,15.7,8.8,18.9   c6.9,2.9,14.4,3.5,21.6,0.8c8.5-3.2,13.6-9.9,17.3-17.3c13.3-26.4,26.7-52.8,40.3-79.3c6.1-12.3,12.5-24.3,18.9-36.6   c2.4-4.5,5.1-8.8,9.6-11.5c4-2.4,8.3-2.7,12.3-0.5s4.3,6.4,4,10.4c0,2.1-0.8,4.3-1.6,6.1c-1.6,4.3-3.5,8.5-5.3,12.5   c-11.2,23.5-22.4,47-33.6,70.4C301.9,298.4,297.1,308.3,297.4,318.7z"
   class="st0" />
</g>
</svg>
